<svg width="69" height="17" viewBox="0 0 69 17" fill="none" xmlns="http://www.w3.org/2000/svg">
<rect width="69" height="17" fill="#E5E5E5"/>
<g id="Transfers" clip-path="url(#clip0_3_951)">
<rect width="360" height="800" transform="translate(-47 -144)" fill="#F4F5F6"/>
<g id="Top menu" filter="url(#filter0_d_3_951)">
<path fill-rule="evenodd" clip-rule="evenodd" d="M-27 -16C-27 -19.3137 -24.3137 -22 -21 -22H287C290.314 -22 293 -19.3137 293 -16V281C293 284.314 290.314 287 287 287H-21C-24.3137 287 -27 284.314 -27 281L-27 -16Z" fill="white"/>
</g>
<g id="Group 2" clip-path="url(#clip1_3_951)">
<rect id="Rectangle" width="69" height="17" rx="8.5" fill="#66B1FE"/>
<path id="Arriving" d="M30.03 12H31.36L28.86 4.9H27.51L25.01 12H26.34L26.94 10.18H29.43L30.03 12ZM28.2 6.13C28.2 6.13 28.35 6.83 28.48 7.23L29.11 9.13H27.25L27.88 7.23C28.02 6.83 28.18 6.13 28.18 6.13H28.2ZM32.0672 12H33.3372V9.98C33.3372 9.68 33.3672 9.4 33.4472 9.15C33.6872 8.39 34.2972 8.08 34.8372 8.08C35.0072 8.08 35.1372 8.1 35.1372 8.1V6.85C35.1372 6.85 35.0272 6.83 34.9072 6.83C34.1272 6.83 33.5172 7.41 33.2872 8.14H33.2672C33.2672 8.14 33.2872 7.97 33.2872 7.78V6.9H32.0672V12ZM35.993 12H37.263V9.98C37.263 9.68 37.293 9.4 37.373 9.15C37.613 8.39 38.223 8.08 38.763 8.08C38.933 8.08 39.063 8.1 39.063 8.1V6.85C39.063 6.85 38.953 6.83 38.833 6.83C38.053 6.83 37.443 7.41 37.213 8.14H37.193C37.193 8.14 37.213 7.97 37.213 7.78V6.9H35.993V12ZM39.9188 6.03H41.1788V4.9H39.9188V6.03ZM39.9188 12H41.1888V6.9H39.9188V12ZM43.7348 12H45.2348L47.0648 6.9H45.7248L44.6648 10.06C44.5648 10.36 44.4948 10.83 44.4848 10.83H44.4648C44.4548 10.83 44.3848 10.36 44.2848 10.06L43.2248 6.9H41.8848L43.7348 12ZM47.7703 6.03H49.0303V4.9H47.7703V6.03ZM47.7703 12H49.0403V6.9H47.7703V12ZM50.4363 12H51.7063V9.66C51.7063 9.42 51.7263 9.19 51.7963 8.98C51.9863 8.37 52.4863 7.94 53.1663 7.94C53.8163 7.94 53.9763 8.36 53.9763 8.98V12H55.2363V8.72C55.2363 7.37 54.5963 6.78 53.4663 6.78C52.4363 6.78 51.8763 7.41 51.6563 7.84H51.6363C51.6363 7.84 51.6563 7.68 51.6563 7.49V6.9H50.4363V12ZM57.0891 12.69L56.7091 13.66C57.1991 13.92 57.8791 14.1 58.5191 14.1C59.8491 14.1 61.2091 13.44 61.2091 11.69V6.9H60.0191V7.29C60.0191 7.37 60.0291 7.43 60.0291 7.43H59.9991C59.9991 7.43 59.5991 6.78 58.4891 6.78C57.0191 6.78 56.2291 7.92 56.2291 9.32C56.2291 10.72 57.0591 11.9 58.5191 11.9C59.1991 11.9 59.6391 11.66 59.9391 11.21H59.9591C59.9591 11.21 59.9391 11.36 59.9391 11.48V11.78C59.9391 12.69 59.2791 13.02 58.4991 13.02C57.7291 13.02 57.0891 12.69 57.0891 12.69ZM58.7891 10.83C57.9691 10.83 57.5091 10.17 57.5091 9.28C57.5091 8.42 57.9391 7.86 58.7091 7.86C59.3991 7.86 59.9691 8.17 59.9691 9.33C59.9691 10.48 59.3991 10.83 58.7891 10.83Z" fill="white"/>
<path id="Arriving. icon" fill-rule="evenodd" clip-rule="evenodd" d="M20 4.66702V11.9998C20 12.2974 19.8027 12.559 19.5165 12.6407L14.8498 13.9739C14.4239 14.0956 14 13.7759 14 13.333H12.6667C12.2985 13.333 12 13.0345 12 12.6664V10.6665C12 10.2984 12.2985 9.99992 12.6667 9.99992C13.0349 9.99992 13.3333 10.2984 13.3333 10.6665V11.9998H14V6.00024C14 5.70261 14.1973 5.44104 14.4835 5.35928L14.5733 5.33363H13.3333V6.66686C13.3333 7.03502 13.0349 7.33347 12.6667 7.33347C12.2985 7.33347 12 7.03502 12 6.66686V4.66702C12 4.29886 12.2985 4.00041 12.6667 4.00041H19.3115C19.4189 3.99663 19.5227 4.01928 19.6157 4.06297C19.6698 4.08829 19.7199 4.12066 19.7649 4.15889C19.9072 4.2796 20 4.45983 20 4.66702ZM18.6667 5.55077L15.3333 6.50307V12.4492L18.6667 11.4969V5.55077ZM10.6667 8.66629C10.6667 8.49569 10.6016 8.32509 10.4714 8.19492L8.4714 6.19508C8.21105 5.93476 7.78894 5.93476 7.5286 6.19508C7.26825 6.45541 7.26825 6.87749 7.5286 7.13782L8.39052 7.99968H4.66667C4.29848 7.99968 4 8.29813 4 8.66629C4 9.03445 4.29848 9.3329 4.66667 9.3329H8.39052L7.5286 10.1948C7.26825 10.4551 7.26825 10.8772 7.5286 11.1375C7.78894 11.3978 8.21105 11.3978 8.4714 11.1375L10.4714 9.13765" fill="white"/>
</g>
</g>
<defs>
<filter id="filter0_d_3_951" x="-28" y="-22" width="322" height="311" filterUnits="userSpaceOnUse" color-interpolation-filters="sRGB">
<feFlood flood-opacity="0" result="BackgroundImageFix"/>
<feColorMatrix in="SourceAlpha" type="matrix" values="0 0 0 0 0 0 0 0 0 0 0 0 0 0 0 0 0 0 127 0" result="hardAlpha"/>
<feOffset dy="1"/>
<feGaussianBlur stdDeviation="0.5"/>
<feColorMatrix type="matrix" values="0 0 0 0 0.176471 0 0 0 0 0.231373 0 0 0 0 0.305882 0 0 0 0.06 0"/>
<feBlend mode="normal" in2="BackgroundImageFix" result="effect1_dropShadow_3_951"/>
<feBlend mode="normal" in="SourceGraphic" in2="effect1_dropShadow_3_951" result="shape"/>
</filter>
<clipPath id="clip0_3_951">
<rect width="360" height="800" fill="white" transform="translate(-47 -144)"/>
</clipPath>
<clipPath id="clip1_3_951">
<rect width="171" height="47" fill="white"/>
</clipPath>
</defs>
</svg>
