<svg width="38" height="38" viewBox="0 0 38 38" fill="none" xmlns="http://www.w3.org/2000/svg">
<g id="Arriving">
<circle id="Oval" cx="19" cy="19" r="19" fill="#56A7FA"/>
<path id="Arriving. icon" fill-rule="evenodd" clip-rule="evenodd" d="M29 24.0006V13.0006C29 12.6898 28.8608 12.4194 28.6473 12.2384C28.5798 12.181 28.5046 12.1324 28.4235 12.0945C28.284 12.0289 28.1284 11.995 27.9672 12.0006H18C17.4477 12.0006 17 12.4483 17 13.0006V16.0006C17 16.5529 17.4477 17.0006 18 17.0006C18.5523 17.0006 19 16.5529 19 16.0006V14.0006H20.8599L20.7253 14.0391C20.296 14.1617 20 14.5541 20 15.0006V24.0006H19V22.0006C19 21.4483 18.5523 21.0006 18 21.0006C17.4477 21.0006 17 21.4483 17 22.0006V25.0006C17 25.5529 17.4477 26.0006 18 26.0006H20C20 26.665 20.6359 27.1447 21.2747 26.9621L28.2747 24.9621C28.704 24.8395 29 24.4471 29 24.0006ZM22 15.7549L27 14.3263V23.2463L22 24.6749V15.7549Z" fill="white"/>
</g>
</svg>
