<svg width="24" height="24" viewBox="0 0 24 24" fill="none" xmlns="http://www.w3.org/2000/svg">
<g id="Baby">
<path id="Baby. icon" fill-rule="evenodd" clip-rule="evenodd" d="M16.7777 3.21297C16.4356 3.98409 15.6989 4.7552 14.5676 5.52632C13.479 6.26825 12.3836 6.76116 11.2814 7.00505C10.934 7.08192 10.5719 6.96843 10.3306 6.70702C9.95591 6.30122 9.98116 5.66854 10.387 5.29389L10.387 5.29391C11.2251 4.52011 11.5375 3.86074 11.3243 3.31579C11.1608 2.89792 10.7681 2.51649 10.1462 2.17149C5.50909 3.04071 2 7.11056 2 12C2 17.5228 6.47715 22 12 22C17.5228 22 22 17.5228 22 12C22 8.20754 19.8889 4.90817 16.7777 3.21297ZM12 24C5.37258 24 0 18.6274 0 12C0 5.37258 5.37258 0 12 0C18.6274 0 24 5.37258 24 12C24 18.6274 18.6274 24 12 24ZM7.5 11C6.67157 11 6 10.3284 6 9.5C6 8.67157 6.67157 8 7.5 8C8.32843 8 9 8.67157 9 9.5C9 10.3284 8.32843 11 7.5 11ZM16.5 11C15.6716 11 15 10.3284 15 9.5C15 8.67157 15.6716 8 16.5 8C17.3284 8 18 8.67157 18 9.5C18 10.3284 17.3284 11 16.5 11ZM12.5 20C10.0147 20 8 17.9853 8 15.5C8 13.0147 10.0147 11 12.5 11C14.9853 11 17 13.0147 17 15.5C17 17.9853 14.9853 20 12.5 20ZM12.5 18.2C13.9912 18.2 15.2 16.9912 15.2 15.5C15.2 14.0088 13.9912 12.8 12.5 12.8C11.0088 12.8 9.8 14.0088 9.8 15.5C9.8 16.9912 11.0088 18.2 12.5 18.2ZM12.5 17C11.6716 17 11 16.3284 11 15.5C11 14.6716 11.6716 14 12.5 14C13.3284 14 14 14.6716 14 15.5C14 16.3284 13.3284 17 12.5 17Z" fill="#9098A1"/>
</g>
</svg>
