<svg width="20" height="20" viewBox="0 0 20 20" fill="none" xmlns="http://www.w3.org/2000/svg">
<g id="Child_seat.Icon">
<path id="Fill" fill-rule="evenodd" clip-rule="evenodd" d="M4.54303 15.9878H13.2451C13.4137 15.9878 13.5308 15.8947 13.5529 15.7809L15.989 3.98766C15.7412 3.99329 15.5097 4.0241 15.2928 4.07868C14.7427 4.21715 14.4774 4.38076 14.0731 4.82186C14.0191 4.88069 13.8316 5.08241 13.7918 5.12592C13.5925 5.34377 13.4984 5.46797 13.3945 5.65681C13.188 6.03198 12.9669 6.64007 12.7058 7.63654C12.6376 7.89684 12.6024 8.26698 12.6069 8.71561C12.612 9.22453 12.6656 9.78578 12.7581 10.4123C12.751 10.3641 12.9513 11.5629 12.9525 11.8254C12.9525 11.7972 12.9524 11.7953 12.9538 11.8137C12.9656 11.9645 12.9699 12.0473 12.9664 12.1851C12.94 13.2112 12.3524 14.033 11.3613 14.5096C11.2918 14.5421 11.2918 14.5421 11.2197 14.5722C10.4095 14.9006 9.70555 14.7665 9.02056 14.4045C8.85617 14.3177 8.37784 14.0217 8.29123 13.9742C7.94523 13.7844 7.6212 13.6923 7.12524 13.6923C5.8246 13.6923 5.36188 14.0432 4.89898 14.8644C4.90159 14.8597 4.82464 15.0683 4.73025 15.369C4.70114 15.4618 4.6701 15.563 4.63375 15.6836C4.60036 15.7958 4.57034 15.8966 4.54303 15.9878ZM10.8824 10.8638C10.8689 10.8557 10.8378 10.8367 10.7955 10.8108C10.6423 9.80438 10.4723 8.26989 10.7711 7.1296C11.4358 4.59298 11.918 4.21304 12.5988 3.47042C13.2296 2.78218 13.8246 2.38585 14.8046 2.13917C15.5948 1.94029 16.4572 1.93612 17.3918 2.12665C17.9352 2.2389 18.2831 2.76793 18.1714 3.3088L15.5115 16.1855C15.3105 17.2299 14.3574 17.9878 13.2451 17.9878H2C2.03758 17.617 2.16346 16.8517 2.42395 16.0703C2.63059 15.4505 2.93298 14.2791 3.15674 13.8822C3.53718 13.2074 4.45402 11.6923 7.12524 11.6923C7.92676 11.6923 8.51233 11.8666 8.96206 12.0736C8.96325 12.0898 8.96456 12.107 8.966 12.1254C8.96701 12.1383 8.96652 12.1288 8.96772 12.0821L8.96788 12.0763C9.74406 12.435 10.1146 12.8899 10.4946 12.7071C11.0952 12.4183 10.9525 12.1206 10.9525 11.8276C10.9525 11.7275 10.878 11.3505 10.7981 10.8281C10.8352 10.8415 10.8647 10.855 10.8888 10.8676L10.8824 10.8638Z" fill="#2D3B4E" fill-opacity="0.5"/>
</g>
</svg>
