<svg width="20" height="20" viewBox="0 0 20 20" fill="none" xmlns="http://www.w3.org/2000/svg">
<g id="Icon">
<path id="Fill" fill-rule="evenodd" clip-rule="evenodd" d="M9.99995 8.70695L13.8789 4.82797C14.236 4.47092 14.8149 4.47092 15.1719 4.82797C15.529 5.18502 15.529 5.76391 15.1719 6.12096L11.2929 9.99995L15.1719 13.8789C15.529 14.236 15.529 14.8149 15.1719 15.1719C14.8149 15.529 14.236 15.529 13.8789 15.1719L9.99995 11.2929L6.12096 15.1719C5.76391 15.529 5.18502 15.529 4.82797 15.1719C4.47092 14.8149 4.47092 14.236 4.82797 13.8789L8.70695 9.99995L4.82797 6.12096C4.47092 5.76391 4.47092 5.18502 4.82797 4.82797C5.18502 4.47092 5.76391 4.47092 6.12096 4.82797L9.99995 8.70695Z" fill="#2D3B4E" fill-opacity="0.5"/>
</g>
</svg>
