<svg width="64" height="64" viewBox="0 0 64 64" fill="none" xmlns="http://www.w3.org/2000/svg">
<g id="Collapse">
<path id="Collapse. icon" fill-rule="evenodd" clip-rule="evenodd" d="M32.0003 41.9748C31.9911 41.4232 32.1904 40.8916 32.5516 40.504L39.4685 32.8955L32.5516 25.4867C32.0222 24.8982 31.8675 24.0228 32.1588 23.263C32.4501 22.5031 33.1309 22.0061 33.8882 22.0003C34.3825 21.9912 34.859 22.201 35.2081 22.5814L43.4449 31.4428C43.8053 31.8236 44.0048 32.3493 43.9963 32.8955C44.03 33.4588 43.8345 34.0098 43.4616 34.4027L35.2081 43.4275C34.4619 44.1908 33.2979 44.1908 32.5516 43.4275C32.1993 43.0409 32.0013 42.519 32.0003 41.9748ZM20.0003 41.9748C19.9911 41.4232 20.1904 40.8916 20.5516 40.504L27.4685 32.8955L20.5516 25.4867C20.0222 24.8982 19.8675 24.0228 20.1588 23.263C20.4501 22.5031 21.1309 22.0061 21.8882 22.0003C22.3825 21.9912 22.859 22.201 23.2081 22.5814L31.4449 31.4428C31.8053 31.8236 32.0048 32.3493 31.9963 32.8955C32.03 33.4588 31.8345 34.0098 31.4616 34.4027L23.2081 43.4275C22.4619 44.1908 21.2979 44.1908 20.5516 43.4275C20.1993 43.0409 20.0013 42.519 20.0003 41.9748Z" fill="#2D3B4E" fill-opacity="0.5"/>
</g>
</svg>
