<svg width="80" height="17" viewBox="0 0 80 17" fill="none" xmlns="http://www.w3.org/2000/svg">
<rect width="80" height="17" fill="#E5E5E5"/>
<g clip-path="url(#clip0_3_951)">
<rect width="360" height="800" transform="translate(-47 -463)" fill="#F4F5F6"/>
<g filter="url(#filter0_d_3_951)">
<path fill-rule="evenodd" clip-rule="evenodd" d="M-27 -16C-27 -19.3137 -24.3137 -22 -21 -22H287C290.314 -22 293 -19.3137 293 -16V281C293 284.314 290.314 287 287 287H-21C-24.3137 287 -27 284.314 -27 281L-27 -16Z" fill="white"/>
</g>
<rect width="80" height="17" rx="8.5" fill="#FE6685"/>
<path d="M25.9 12H28.32C30.51 12 31.94 10.68 31.94 8.44C31.94 6.2 30.51 4.9 28.32 4.9H25.9V12ZM27.19 10.89V6.01H28.25C29.67 6.01 30.61 6.86 30.61 8.44C30.61 10.04 29.69 10.89 28.25 10.89H27.19ZM32.7326 9.45C32.7326 10.9 33.7826 12.12 35.4726 12.12C36.7426 12.12 37.5226 11.39 37.5226 11.39L37.0326 10.48C37.0326 10.48 36.3826 11.04 35.5626 11.04C34.8026 11.04 34.1126 10.58 34.0326 9.69H37.5526C37.5526 9.69 37.5826 9.35 37.5826 9.2C37.5826 7.85 36.7926 6.78 35.3226 6.78C33.8026 6.78 32.7326 7.88 32.7326 9.45ZM34.0726 8.82C34.1926 8.16 34.6426 7.76 35.2926 7.76C35.8526 7.76 36.2826 8.13 36.3026 8.82H34.0726ZM38.6297 14H39.8997V11.86C39.8997 11.6 39.8797 11.42 39.8797 11.42H39.8997C39.8997 11.42 40.3497 12.12 41.3597 12.12C42.6997 12.12 43.6897 11.07 43.6897 9.45C43.6897 7.87 42.8097 6.78 41.4297 6.78C40.2297 6.78 39.7897 7.62 39.7897 7.62H39.7697C39.7697 7.62 39.7897 7.46 39.7897 7.27V6.9H38.6297V14ZM39.8597 9.48C39.8597 8.35 40.4797 7.87 41.1397 7.87C41.8897 7.87 42.4097 8.5 42.4097 9.47C42.4097 10.48 41.8297 11.05 41.1297 11.05C40.2897 11.05 39.8597 10.27 39.8597 9.48ZM44.313 10.53C44.313 11.55 45.133 12.12 46.043 12.12C47.203 12.12 47.603 11.22 47.593 11.22H47.613C47.613 11.22 47.593 11.38 47.593 11.58V12H48.763V8.81C48.763 7.52 47.983 6.78 46.643 6.78C45.433 6.78 44.643 7.41 44.643 7.41L45.123 8.32C45.123 8.32 45.793 7.83 46.523 7.83C47.083 7.83 47.503 8.06 47.503 8.73V8.8H47.333C46.503 8.8 44.313 8.91 44.313 10.53ZM45.593 10.47C45.593 9.76 46.643 9.67 47.293 9.67H47.513V9.79C47.513 10.41 47.033 11.13 46.363 11.13C45.843 11.13 45.593 10.81 45.593 10.47ZM50.0848 12H51.3548V9.98C51.3548 9.68 51.3848 9.4 51.4648 9.15C51.7048 8.39 52.3148 8.08 52.8548 8.08C53.0248 8.08 53.1548 8.1 53.1548 8.1V6.85C53.1548 6.85 53.0448 6.83 52.9248 6.83C52.1448 6.83 51.5348 7.41 51.3048 8.14H51.2848C51.2848 8.14 51.3048 7.97 51.3048 7.78V6.9H50.0848V12ZM54.2305 10.13C54.2305 11.84 55.6405 12.05 56.3505 12.05C56.5905 12.05 56.7405 12.02 56.7405 12.02V10.91C56.7405 10.91 56.6505 10.93 56.5105 10.93C56.1605 10.93 55.5005 10.81 55.5005 9.97V7.99H56.6605V6.98H55.5005V5.51H54.2605V6.98H53.5705V7.99H54.2305V10.13ZM57.7801 6.03H59.0401V4.9H57.7801V6.03ZM57.7801 12H59.0501V6.9H57.7801V12ZM60.4461 12H61.7161V9.66C61.7161 9.42 61.7361 9.19 61.8061 8.98C61.9961 8.37 62.4961 7.94 63.1761 7.94C63.8261 7.94 63.9861 8.36 63.9861 8.98V12H65.2461V8.72C65.2461 7.37 64.6061 6.78 63.4761 6.78C62.4461 6.78 61.8861 7.41 61.6661 7.84H61.6461C61.6461 7.84 61.6661 7.68 61.6661 7.49V6.9H60.4461V12ZM67.0989 12.69L66.7189 13.66C67.2089 13.92 67.8889 14.1 68.5289 14.1C69.8589 14.1 71.2189 13.44 71.2189 11.69V6.9H70.0289V7.29C70.0289 7.37 70.0389 7.43 70.0389 7.43H70.0089C70.0089 7.43 69.6089 6.78 68.4989 6.78C67.0289 6.78 66.2389 7.92 66.2389 9.32C66.2389 10.72 67.0689 11.9 68.5289 11.9C69.2089 11.9 69.6489 11.66 69.9489 11.21H69.9689C69.9689 11.21 69.9489 11.36 69.9489 11.48V11.78C69.9489 12.69 69.2889 13.02 68.5089 13.02C67.7389 13.02 67.0989 12.69 67.0989 12.69ZM68.7989 10.83C67.9789 10.83 67.5189 10.17 67.5189 9.28C67.5189 8.42 67.9489 7.86 68.7189 7.86C69.4089 7.86 69.9789 8.17 69.9789 9.33C69.9789 10.48 69.4089 10.83 68.7989 10.83Z" fill="white"/>
<path fill-rule="evenodd" clip-rule="evenodd" d="M20 4.66702V11.9998C20 12.2974 19.8027 12.559 19.5165 12.6407L14.8498 13.9739C14.4239 14.0956 14 13.7759 14 13.333H12.6667C12.2985 13.333 12 13.0345 12 12.6664V10.6665C12 10.2984 12.2985 9.99992 12.6667 9.99992C13.0349 9.99992 13.3333 10.2984 13.3333 10.6665V11.9998H14V6.00024C14 5.70261 14.1973 5.44104 14.4835 5.35928L14.5733 5.33363H13.3333V6.66686C13.3333 7.03502 13.0349 7.33347 12.6667 7.33347C12.2985 7.33347 12 7.03502 12 6.66686V4.66702C12 4.29886 12.2985 4.00041 12.6667 4.00041H19.3115C19.4189 3.99663 19.5227 4.01928 19.6157 4.06297C19.6698 4.08829 19.7199 4.12066 19.7649 4.15889C19.9072 4.2796 20 4.45983 20 4.66702ZM18.6667 5.55077L15.3333 6.50307V12.4492L18.6667 11.4969V5.55077ZM4.19526 8.19492C4.06509 8.32509 4 8.49569 4 8.66629C4 8.83689 4.06509 9.00749 4.19526 9.13765L6.19526 11.1375C6.45561 11.3978 6.87772 11.3978 7.13807 11.1375C7.39842 10.8772 7.39842 10.4551 7.13807 10.1948L6.27614 9.3329H10C10.3682 9.3329 10.6667 9.03445 10.6667 8.66629C10.6667 8.29813 10.3682 7.99968 10 7.99968H6.27614L7.13807 7.13782C7.39842 6.87749 7.39842 6.45541 7.13807 6.19508C6.87772 5.93476 6.45561 5.93476 6.19526 6.19508L4.19526 8.19492Z" fill="white"/>
</g>
<defs>
<filter id="filter0_d_3_951" x="-28" y="-22" width="322" height="311" filterUnits="userSpaceOnUse" color-interpolation-filters="sRGB">
<feFlood flood-opacity="0" result="BackgroundImageFix"/>
<feColorMatrix in="SourceAlpha" type="matrix" values="0 0 0 0 0 0 0 0 0 0 0 0 0 0 0 0 0 0 127 0" result="hardAlpha"/>
<feOffset dy="1"/>
<feGaussianBlur stdDeviation="0.5"/>
<feColorMatrix type="matrix" values="0 0 0 0 0.176471 0 0 0 0 0.231373 0 0 0 0 0.305882 0 0 0 0.06 0"/>
<feBlend mode="normal" in2="BackgroundImageFix" result="effect1_dropShadow_3_951"/>
<feBlend mode="normal" in="SourceGraphic" in2="effect1_dropShadow_3_951" result="shape"/>
</filter>
<clipPath id="clip0_3_951">
<rect width="360" height="800" fill="white" transform="translate(-47 -463)"/>
</clipPath>
</defs>
</svg>
