<svg width="11" height="6" viewBox="0 0 11 6" fill="none" xmlns="http://www.w3.org/2000/svg">
<g id="Dropdown">
<path id="Path" d="M9.25174 0.275703C9.44555 0.0950762 9.71135 -0.00456037 9.98717 2.97923e-05C10.2593 0.000509972 10.5202 0.0995446 10.7135 0.275703C11.0952 0.648823 11.0952 1.23082 10.7135 1.60394L6.20108 5.73068C6.00464 5.91715 5.72914 6.01488 5.4475 5.998C5.17441 6.00227 4.91155 5.9025 4.72115 5.72233L0.290435 1.60394C0.100248 1.42937 -0.00462727 1.19115 -0.000103638 0.944001C0.00278574 0.565338 0.25133 0.224913 0.631234 0.0792701C1.01114 -0.0663728 1.44887 0.0109584 1.74313 0.275703L5.4475 3.73414L9.25174 0.275703Z" fill="#2D3B4E" fill-opacity="0.5"/>
</g>
</svg>
