<svg width="24" height="24" viewBox="0 0 24 24" fill="none" xmlns="http://www.w3.org/2000/svg">
<g id="Early check in">
<path id="Early check in. icon" fill-rule="evenodd" clip-rule="evenodd" d="M13 3C13 3.55228 12.5523 4 12 4C11.4477 4 11 3.55228 11 3V1C11 0.447715 11.4477 0 12 0C12.5523 0 13 0.447715 13 1V3ZM7 12C7 14.7614 9.23858 17 12 17C14.7614 17 17 14.7614 17 12C17 9.23858 14.7614 7 12 7C9.23858 7 7 9.23858 7 12ZM15 12C15 13.6569 13.6569 15 12 15C10.3431 15 9 13.6569 9 12C9 10.3431 10.3431 9 12 9C13.6569 9 15 10.3431 15 12ZM12 24C12.5523 24 13 23.5523 13 23V21C13 20.4477 12.5523 20 12 20C11.4477 20 11 20.4477 11 21V23C11 23.5523 11.4477 24 12 24ZM21 13C20.4477 13 20 12.5523 20 12C20 11.4477 20.4477 11 21 11H23C23.5523 11 24 11.4477 24 12C24 12.5523 23.5523 13 23 13H21ZM1 12C1 12.5523 1.44772 13 2 13H4C4.55228 13 5 12.5523 5 12C5 11.4477 4.55228 11 4 11H2C1.44772 11 1 11.4477 1 12ZM16.9497 18.364C16.5592 17.9734 16.5592 17.3403 16.9497 16.9497C17.3403 16.5592 17.9734 16.5592 18.364 16.9497L19.7782 18.364C20.1687 18.7545 20.1687 19.3877 19.7782 19.7782C19.3877 20.1687 18.7545 20.1687 18.364 19.7782L16.9497 18.364ZM4.22183 4.22183C3.8313 4.61235 3.8313 5.24551 4.22183 5.63604L5.63604 7.05025C6.02656 7.44078 6.65973 7.44078 7.05025 7.05025C7.44078 6.65973 7.44078 6.02656 7.05025 5.63604L5.63604 4.22183C5.24551 3.8313 4.61235 3.8313 4.22183 4.22183ZM5.63604 16.9497C6.02656 16.5592 6.65973 16.5592 7.05025 16.9497C7.44078 17.3403 7.44078 17.9734 7.05025 18.364L5.63604 19.7782C5.24551 20.1687 4.61235 20.1687 4.22183 19.7782C3.8313 19.3877 3.8313 18.7545 4.22183 18.364L5.63604 16.9497ZM19.7782 4.22183C19.3877 3.8313 18.7545 3.8313 18.364 4.22183L16.9497 5.63604C16.5592 6.02656 16.5592 6.65973 16.9497 7.05025C17.3403 7.44078 17.9734 7.44078 18.364 7.05025L19.7782 5.63604C20.1687 5.24551 20.1687 4.61235 19.7782 4.22183Z" fill="#9098A1"/>
</g>
</svg>
