<svg width="38" height="38" viewBox="0 0 38 38" fill="none" xmlns="http://www.w3.org/2000/svg">
<rect width="38" height="38" fill="#E5E5E5"/>
<g clip-path="url(#clip0_0_1)">
<rect width="1200" height="942" transform="translate(-880 -241)" fill="#F4F5F6"/>
<g filter="url(#filter0_d_0_1)">
<rect x="-769" y="-9" width="1058" height="56" rx="6" fill="white"/>
</g>
<circle cx="19" cy="19" r="19" fill="#F4F5F6"/>
<path fill-rule="evenodd" clip-rule="evenodd" d="M20 10C20 10.5523 19.5523 11 19 11C18.4477 11 18 10.5523 18 10V8C18 7.44772 18.4477 7 19 7C19.5523 7 20 7.44772 20 8V10ZM14 19C14 21.7614 16.2386 24 19 24C21.7614 24 24 21.7614 24 19C24 16.2386 21.7614 14 19 14C16.2386 14 14 16.2386 14 19ZM22 19C22 20.6569 20.6569 22 19 22C17.3431 22 16 20.6569 16 19C16 17.3431 17.3431 16 19 16C20.6569 16 22 17.3431 22 19ZM19 31C19.5523 31 20 30.5523 20 30V28C20 27.4477 19.5523 27 19 27C18.4477 27 18 27.4477 18 28V30C18 30.5523 18.4477 31 19 31ZM28 20C27.4477 20 27 19.5523 27 19C27 18.4477 27.4477 18 28 18H30C30.5523 18 31 18.4477 31 19C31 19.5523 30.5523 20 30 20H28ZM8 19C8 19.5523 8.44772 20 9 20H11C11.5523 20 12 19.5523 12 19C12 18.4477 11.5523 18 11 18H9C8.44772 18 8 18.4477 8 19ZM23.9497 25.364C23.5592 24.9734 23.5592 24.3403 23.9497 23.9497C24.3403 23.5592 24.9734 23.5592 25.364 23.9497L26.7782 25.364C27.1687 25.7545 27.1687 26.3877 26.7782 26.7782C26.3877 27.1687 25.7545 27.1687 25.364 26.7782L23.9497 25.364ZM11.2218 11.2218C10.8313 11.6123 10.8313 12.2455 11.2218 12.636L12.636 14.0503C13.0266 14.4408 13.6597 14.4408 14.0503 14.0503C14.4408 13.6597 14.4408 13.0266 14.0503 12.636L12.636 11.2218C12.2455 10.8313 11.6123 10.8313 11.2218 11.2218ZM12.636 23.9497C13.0266 23.5592 13.6597 23.5592 14.0503 23.9497C14.4408 24.3403 14.4408 24.9734 14.0503 25.364L12.636 26.7782C12.2455 27.1687 11.6123 27.1687 11.2218 26.7782C10.8313 26.3877 10.8313 25.7545 11.2218 25.364L12.636 23.9497ZM26.7782 11.2218C26.3877 10.8313 25.7545 10.8313 25.364 11.2218L23.9497 12.636C23.5592 13.0266 23.5592 13.6597 23.9497 14.0503C24.3403 14.4408 24.9734 14.4408 25.364 14.0503L26.7782 12.636C27.1687 12.2455 27.1687 11.6123 26.7782 11.2218Z" fill="#9098A1"/>
</g>
<defs>
<filter id="filter0_d_0_1" x="-770" y="-9" width="1060" height="58" filterUnits="userSpaceOnUse" color-interpolation-filters="sRGB">
<feFlood flood-opacity="0" result="BackgroundImageFix"/>
<feColorMatrix in="SourceAlpha" type="matrix" values="0 0 0 0 0 0 0 0 0 0 0 0 0 0 0 0 0 0 127 0" result="hardAlpha"/>
<feOffset dy="1"/>
<feGaussianBlur stdDeviation="0.5"/>
<feColorMatrix type="matrix" values="0 0 0 0 0.176471 0 0 0 0 0.231373 0 0 0 0 0.305882 0 0 0 0.06 0"/>
<feBlend mode="normal" in2="BackgroundImageFix" result="effect1_dropShadow_0_1"/>
<feBlend mode="normal" in="SourceGraphic" in2="effect1_dropShadow_0_1" result="shape"/>
</filter>
<clipPath id="clip0_0_1">
<rect width="1200" height="942" fill="white" transform="translate(-880 -241)"/>
</clipPath>
</defs>
</svg>
