<svg width="104" height="37" viewBox="0 0 104 37" fill="none" xmlns="http://www.w3.org/2000/svg">
<g clip-path="url(#clip0_1_235)">
<path d="M0.9 33.5806H2.19V30.7106H4.54V29.6006H2.19V27.5906H4.98V26.4806H0.9V33.5806ZM6.60297 29.9806C6.60297 32.0706 8.18297 33.7006 10.273 33.7006C12.363 33.7006 13.943 32.0706 13.943 29.9806C13.943 27.9506 12.363 26.3606 10.273 26.3606C8.18297 26.3606 6.60297 27.9506 6.60297 29.9806ZM7.93297 29.9806C7.93297 28.5806 8.97297 27.5406 10.273 27.5406C11.573 27.5406 12.613 28.5806 12.613 29.9806C12.613 31.4406 11.573 32.5206 10.273 32.5206C8.97297 32.5206 7.93297 31.4406 7.93297 29.9806ZM16.157 33.5806H17.447V30.9306H18.687L20.097 33.5806H21.537L20.077 30.9306C19.937 30.6806 19.837 30.5806 19.837 30.5806V30.5606C20.587 30.2606 21.037 29.4706 21.037 28.6206C21.037 27.6806 20.587 27.0006 19.877 26.6806C19.567 26.5406 19.217 26.4806 18.447 26.4806H16.157V33.5806ZM17.447 29.8106V27.5906H18.427C19.437 27.5906 19.727 28.0106 19.727 28.6906C19.727 29.4006 19.297 29.8106 18.607 29.8106H17.447ZM26.9707 33.5806H28.2607V31.1306H29.7107C31.0407 31.1306 31.9707 30.1706 31.9707 28.7906C31.9707 27.4106 31.0407 26.4806 29.7107 26.4806H26.9707V33.5806ZM28.2607 30.0106V27.5906H29.4907C30.2207 27.5906 30.6607 28.0606 30.6607 28.7906C30.6607 29.5306 30.2207 30.0106 29.4707 30.0106H28.2607ZM37.9284 33.5806H39.2584L36.7584 26.4806H35.4084L32.9084 33.5806H34.2384L34.8384 31.7606H37.3284L37.9284 33.5806ZM36.0984 27.7106C36.0984 27.7106 36.2484 28.4106 36.3784 28.8106L37.0084 30.7106H35.1484L35.7784 28.8106C35.9184 28.4106 36.0784 27.7106 36.0784 27.7106H36.0984ZM41.0656 33.5806H42.3556V30.9306H43.5956L45.0056 33.5806H46.4456L44.9856 30.9306C44.8456 30.6806 44.7456 30.5806 44.7456 30.5806V30.5606C45.4956 30.2606 45.9456 29.4706 45.9456 28.6206C45.9456 27.6806 45.4956 27.0006 44.7856 26.6806C44.4756 26.5406 44.1256 26.4806 43.3556 26.4806H41.0656V33.5806ZM42.3556 29.8106V27.5906H43.3356C44.3456 27.5906 44.6356 28.0106 44.6356 28.6906C44.6356 29.4006 44.2056 29.8106 43.5156 29.8106H42.3556ZM50.0177 33.5806H51.3077V27.5906H53.6377V26.4806H47.6877V27.5906H50.0177V33.5806ZM55.473 33.5806H56.763V29.4906C56.763 29.0706 56.693 28.3906 56.693 28.3906H56.713C56.713 28.3906 57.033 29.0806 57.303 29.4906L59.993 33.5806H61.273V26.4806H59.993V30.5806C59.993 31.0006 60.063 31.6806 60.063 31.6806H60.043C60.043 31.6806 59.723 30.9906 59.453 30.5806L56.763 26.4806H55.473V33.5806ZM63.9707 33.5806H68.3807V32.4706H65.2607V30.5606H67.6507V29.4506H65.2607V27.5906H68.2207V26.4806H63.9707V33.5806ZM70.6227 33.5806H71.9127V30.9306H73.1527L74.5627 33.5806H76.0027L74.5427 30.9306C74.4027 30.6806 74.3027 30.5806 74.3027 30.5806V30.5606C75.0527 30.2606 75.5027 29.4706 75.5027 28.6206C75.5027 27.6806 75.0527 27.0006 74.3427 26.6806C74.0327 26.5406 73.6827 26.4806 72.9127 26.4806H70.6227V33.5806ZM71.9127 29.8106V27.5906H72.8927C73.9027 27.5906 74.1927 28.0106 74.1927 28.6906C74.1927 29.4006 73.7627 29.8106 73.0727 29.8106H71.9127ZM77.5647 32.7306C77.5647 32.7306 78.4347 33.7006 80.0147 33.7006C81.4947 33.7006 82.3547 32.7506 82.3547 31.6206C82.3547 29.3506 79.0147 29.6606 79.0147 28.4006C79.0147 27.9006 79.4847 27.5506 80.0847 27.5506C80.9747 27.5506 81.6547 28.1706 81.6547 28.1706L82.2147 27.1206C82.2147 27.1206 81.4947 26.3606 80.0947 26.3606C78.7347 26.3606 77.7147 27.2406 77.7147 28.4206C77.7147 30.6006 81.0647 30.3806 81.0647 31.6506C81.0647 32.2306 80.5747 32.5106 80.0347 32.5106C79.0347 32.5106 78.2647 31.7606 78.2647 31.7606L77.5647 32.7306Z" fill="#2D3B4E"/>
<mask id="mask0_1_235" style="mask-type:luminance" maskUnits="userSpaceOnUse" x="0" y="0" width="100" height="18">
<path fill-rule="evenodd" clip-rule="evenodd" d="M0.0275503 2.50981H1.50346C1.51598 2.50986 1.52689 2.51872 1.53002 2.53137L5.05449 17.371C5.0573 17.3839 5.06841 17.3929 5.08106 17.3926H8.47663C8.48887 17.3927 8.4997 17.3843 8.5032 17.3721L11.2809 6.47952C11.4064 5.95959 11.4926 5.43017 11.5386 4.89615H11.6085C11.6543 5.4302 11.7405 5.95964 11.8663 6.47952L14.6469 17.371C14.65 17.3831 14.6605 17.3916 14.6725 17.3916H18.07C18.0826 17.3915 18.0935 17.3827 18.0966 17.37L21.6211 2.53035C21.6242 2.51769 21.6351 2.50883 21.6476 2.50878H23.1235C23.1388 2.50878 23.1511 2.49591 23.1511 2.48003V0.125521C23.1511 0.109642 23.1388 0.0967699 23.1235 0.0967699H16.6925C16.6773 0.0967699 16.665 0.109642 16.665 0.125521V2.48003C16.665 2.49591 16.6773 2.50878 16.6925 2.50878H18.5738C18.5821 2.50889 18.5899 2.51288 18.595 2.51965C18.6002 2.52642 18.6021 2.53525 18.6004 2.54369L16.4544 12.3745C16.3622 12.8735 16.2998 13.3779 16.2675 13.885H16.1691C16.1206 13.3753 16.0344 12.8703 15.9113 12.3745L12.803 0.11936C12.7999 0.106707 12.789 0.0978485 12.7764 0.0977967H10.3687C10.3562 0.0978485 10.3453 0.106707 10.3422 0.11936L7.23391 12.3745C7.11081 12.8703 7.02462 13.3753 6.97612 13.885H6.87773C6.84513 13.378 6.7827 12.8735 6.69078 12.3745L4.54383 2.54369C4.54205 2.53525 4.54401 2.52642 4.54916 2.51965C4.55431 2.51288 4.56211 2.50889 4.57039 2.50878H6.45956C6.47477 2.50878 6.48711 2.49591 6.48711 2.48003V0.125521C6.48795 0.117378 6.48542 0.109247 6.48016 0.103169C6.4749 0.0970905 6.4674 0.0936423 6.45956 0.0936894H0.0275503C0.0202435 0.0936894 0.013236 0.0967186 0.00806929 0.10211C0.00290261 0.107502 0 0.114815 0 0.122441V2.47695C0 2.48458 0.00290261 2.49189 0.00806929 2.49728C0.013236 2.50267 0.0202435 2.5057 0.0275503 2.5057V2.50981ZM22.1937 11.1834C22.1574 12.9533 22.8279 14.6592 24.0446 15.8928C25.2614 17.1263 26.9148 17.7764 28.609 17.6873C30.352 17.7037 32.0482 17.0984 33.4165 15.9715C33.4247 15.9618 33.4247 15.9473 33.4165 15.9376L32.2958 13.7946C32.2928 13.7872 32.2867 13.7816 32.2792 13.7794C32.2718 13.7772 32.2637 13.7786 32.2574 13.7833C31.2659 14.5772 30.0625 15.03 28.8137 15.0792C27.9037 15.1206 27.0153 14.7829 26.3441 14.1404C25.6728 13.4979 25.2739 12.6033 25.2351 11.6537C25.2342 11.6454 25.2367 11.6372 25.242 11.631C25.2472 11.6247 25.2547 11.6211 25.2626 11.6208H33.4706C33.4837 11.6215 33.4952 11.6118 33.4972 11.5982C33.509 11.476 33.5651 10.899 33.5651 10.5714C33.5651 7.28557 31.6956 4.67641 28.2518 4.67641C26.5977 4.6192 24.997 5.29217 23.8428 6.5301C22.6886 7.76802 22.0878 9.45626 22.1878 11.1803L22.1937 11.1834ZM25.3423 9.79513C25.3338 9.79502 25.3257 9.79092 25.3204 9.78396C25.3151 9.777 25.313 9.76791 25.3148 9.75919C25.4765 8.22956 26.7132 7.07064 28.1879 7.06686C28.8436 7.0872 29.4627 7.38729 29.9007 7.89709C30.3386 8.4069 30.5571 9.08182 30.505 9.76433C30.5051 9.78095 30.4924 9.79458 30.4765 9.79513H25.3423ZM35.0233 13.4486C35.0233 16.8371 36.7786 17.4922 38.6757 17.4922C39.0283 17.4915 39.3806 17.4682 39.7304 17.4224C39.7437 17.4208 39.7533 17.4085 39.7521 17.3947V14.9303C39.7521 14.9303 39.5179 14.9539 39.1903 14.9539C38.2063 14.9539 37.9731 14.3696 37.9731 13.2494V0.123467C37.9731 0.107589 37.9608 0.0947163 37.9456 0.0947163H33.201C33.1858 0.0947163 33.1735 0.107589 33.1735 0.123467V2.38248C33.1735 2.39836 33.1858 2.41123 33.201 2.41123H34.9938C35.009 2.41123 35.0213 2.42411 35.0213 2.43998L35.0233 13.4486ZM40.0099 11.208C40.0099 15.227 43.1004 17.6873 46.5885 17.6873C48.3956 17.6812 50.1416 17.0042 51.5141 15.7774C51.5227 15.7685 51.5247 15.7547 51.519 15.7435L50.4898 13.6016C50.4866 13.5938 50.4801 13.5879 50.4723 13.5857C50.4644 13.5835 50.456 13.5852 50.4495 13.5903C49.4043 14.4922 48.1066 15.0151 46.7518 15.0802C45.7369 15.1351 44.7477 14.7357 44.0324 13.9823C43.3172 13.2288 42.9438 12.1927 43.006 11.1341C42.9194 10.1229 43.2559 9.12199 43.929 8.38891C44.602 7.65584 45.5459 7.26217 46.5177 7.30919C47.5242 7.30919 48.7423 7.69836 48.7423 8.527V9.3269C48.7423 9.34278 48.7547 9.35565 48.7699 9.35565H51.2907C51.306 9.35565 51.3183 9.34278 51.3183 9.3269V7.6501C51.3183 5.45782 48.4157 4.67846 46.4252 4.67846C44.7342 4.617 43.0926 5.27956 41.8813 6.51244C40.67 7.74531 39.9943 9.44134 40.0109 11.207L40.0099 11.208ZM51.9028 11.1834C51.9086 12.97 52.6152 14.6762 53.858 15.9049C55.1009 17.1336 56.7716 17.7777 58.4814 17.6873C61.6697 17.8308 64.4568 15.4626 64.9685 12.1753C65.1865 10.2578 64.6019 8.3352 63.3643 6.8997C62.1267 5.4642 60.3562 4.6551 58.506 4.67949C56.7929 4.58541 55.1177 5.22747 53.8702 6.45622C52.6226 7.68498 51.9117 9.39324 51.9028 11.1834ZM54.9234 11.1834C54.8827 10.1715 55.2393 9.1861 55.9109 8.455C56.5825 7.72391 57.5109 7.31044 58.4814 7.31022C59.4483 7.3154 60.3716 7.73123 61.0386 8.46193C61.7055 9.19263 62.0587 10.1752 62.0167 11.1834C62.0629 12.1928 61.7112 13.1779 61.0433 13.9096C60.3755 14.6413 59.4497 15.0558 58.4814 15.0566C57.5097 15.0605 56.5789 14.6483 55.9065 13.9163C55.234 13.1842 54.8787 12.1964 54.9234 11.1834ZM65.7664 17.3947H72.1266C72.1418 17.3947 72.1542 17.3818 72.1542 17.3659V15.1069C72.1542 15.091 72.1418 15.0781 72.1266 15.0781H70.4706C70.4554 15.0781 70.4431 15.0653 70.4431 15.0494V12.0572C70.4431 9.8167 71.4034 7.50223 73.51 7.50223C74.9151 7.50223 75.1257 8.64714 75.1257 9.98715V17.3639C75.1257 17.3797 75.138 17.3926 75.1532 17.3926H79.7777C79.7929 17.3926 79.8053 17.3797 79.8053 17.3639V15.1048C79.8053 15.089 79.7929 15.0761 79.7777 15.0761H78.105C78.0977 15.0761 78.0907 15.0731 78.0855 15.0677C78.0804 15.0623 78.0775 15.055 78.0775 15.0473V11.9094C78.0775 9.61955 79.084 7.50018 81.1208 7.50018C82.4983 7.50018 82.7591 8.57218 82.7591 9.9851V17.3618C82.7591 17.3777 82.7714 17.3906 82.7866 17.3906H87.4377C87.4529 17.3906 87.4652 17.3777 87.4652 17.3618V15.1028C87.4652 15.0869 87.4529 15.074 87.4377 15.074H85.765C85.7498 15.074 85.7374 15.0612 85.7374 15.0453V9.39775C85.7374 6.13347 84.3088 4.67436 81.9001 4.67436C80.1355 4.68249 78.5273 5.73202 77.7479 7.38415H77.6967C77.4214 5.72361 75.9822 4.55321 74.372 4.68052C72.6328 4.76451 71.074 5.82573 70.2994 7.45295H70.2522C70.2815 7.27586 70.2973 7.09663 70.2994 6.91694V6.35732C70.2994 5.48041 69.7839 4.96906 68.7301 4.96906H65.6484C65.6332 4.96906 65.6208 4.98193 65.6208 4.99781V7.25682C65.6208 7.2727 65.6332 7.28557 65.6484 7.28557H66.9275C67.0712 7.2853 67.2091 7.34468 67.3108 7.45062C67.4125 7.55656 67.4696 7.70037 67.4696 7.85033V15.0525C67.4696 15.0601 67.4667 15.0674 67.4616 15.0728C67.4564 15.0782 67.4494 15.0812 67.4421 15.0812H65.7694C65.7542 15.0812 65.7418 15.0941 65.7418 15.11V17.369C65.7418 17.3849 65.7542 17.3977 65.7694 17.3977L65.7664 17.3947ZM87.6512 11.1834C87.6149 12.9531 88.2853 14.6589 89.5018 15.8924C90.7183 17.1259 92.3715 17.7761 94.0655 17.6873C95.8086 17.704 97.5048 17.0986 98.873 15.9715C98.8812 15.9618 98.8812 15.9473 98.873 15.9376L97.7513 13.7946C97.7483 13.7872 97.7422 13.7816 97.7347 13.7794C97.7273 13.7772 97.7193 13.7786 97.713 13.7833C96.7214 14.5771 95.518 15.0299 94.2692 15.0792C93.3591 15.1209 92.4704 14.7833 91.799 14.1408C91.1275 13.4983 90.7284 12.6035 90.6896 11.6537C90.6891 11.6453 90.6918 11.6371 90.6972 11.6309C90.7026 11.6247 90.7101 11.6211 90.7181 11.6208H98.9261C98.9392 11.6215 98.9507 11.6118 98.9527 11.5982C98.9645 11.476 99.0206 10.899 99.0206 10.5714C99.0206 7.28557 97.1511 4.67641 93.7073 4.67641C92.0532 4.6192 90.4525 5.29217 89.2983 6.5301C88.1441 7.76802 87.5433 9.45626 87.6433 11.1803L87.6512 11.1834ZM90.7998 9.79513C90.7914 9.79467 90.7836 9.79048 90.7783 9.78361C90.773 9.77675 90.7708 9.76786 90.7723 9.75919C90.934 8.22956 92.1707 7.07064 93.6454 7.06686C94.301 7.08747 94.9198 7.38768 95.3575 7.89746C95.7952 8.40723 96.0136 9.08199 95.9615 9.76433C95.9618 9.7724 95.9589 9.78024 95.9535 9.78605C95.9482 9.79186 95.9408 9.79514 95.933 9.79513H90.7998Z" fill="white"/>
</mask>
<g mask="url(#mask0_1_235)">
<mask id="mask1_1_235" style="mask-type:luminance" maskUnits="userSpaceOnUse" x="0" y="0" width="162" height="56">
<path fill-rule="evenodd" clip-rule="evenodd" d="M0 55.6685H161.366V0.0977783H0V55.6685Z" fill="white"/>
</mask>
<g mask="url(#mask1_1_235)">
<path d="M-0.403412 -0.327332H99.4319V18.1021H-0.403412V-0.327332Z" fill="#2D3A4E"/>
</g>
</g>
</g>
<defs>
<clipPath id="clip0_1_235">
<rect width="104" height="37" fill="white"/>
</clipPath>
</defs>
</svg>
