<svg width="14" height="12" viewBox="0 0 14 12" fill="none" xmlns="http://www.w3.org/2000/svg">
<g id="Luggage.Hand.Icon">
<path id="Combined Shape" fill-rule="evenodd" clip-rule="evenodd" d="M6 0H8C9.10457 0 10 0.89543 10 2V3H11C12.6569 3 14 4.34315 14 6V9C14 10.6569 12.6569 12 11 12H3C1.34315 12 0 10.6569 0 9V6C0 4.34315 1.34315 3 3 3H4V2C4 0.89543 4.89543 0 6 0ZM3 5H6H8H11C11.5523 5 12 5.44772 12 6V9C12 9.55229 11.5523 10 11 10H3C2.44772 10 2 9.55229 2 9V6C2 5.44772 2.44772 5 3 5ZM6 3V2H8V3H6Z" fill="#2D3B4E"/>
</g>
</svg>
