<svg width="38" height="38" viewBox="0 0 38 38" fill="none" xmlns="http://www.w3.org/2000/svg">
<circle cx="19" cy="19" r="19" fill="#736BFF"/>
<path fill-rule="evenodd" clip-rule="evenodd" d="M12 29C11.4477 29 11 28.5523 11 28V10.3874C11 9.83514 11.4477 9.38743 12 9.38743C12.1075 9.38743 12.2143 9.40475 12.3162 9.43874L16 10.6667V9C16 8.44772 16.4477 8 17 8C17.5523 8 18 8.44772 18 9V11.3333L19 11.6667V10C19 9.44772 19.4477 9 20 9C20.5523 9 21 9.44772 21 10V12.3333L22.3162 12.7721C22.7246 12.9082 23 13.2903 23 13.7208V15H27C27.5523 15 28 15.4477 28 16V28C28 28.5523 27.5523 29 27 29H22H12ZM26 21V23H23V21H26ZM23 25H26V27H23V25ZM23 19V17H26V19H23ZM21 27V14.4415L13 11.7749V27H21ZM15 16C15 16.5523 15.4477 17 16 17H18C18.5523 17 19 16.5523 19 16C19 15.4477 18.5523 15 18 15H16C15.4477 15 15 15.4477 15 16ZM16 21C15.4477 21 15 20.5523 15 20C15 19.4477 15.4477 19 16 19H18C18.5523 19 19 19.4477 19 20C19 20.5523 18.5523 21 18 21H16ZM15 24C15 24.5523 15.4477 25 16 25H18C18.5523 25 19 24.5523 19 24C19 23.4477 18.5523 23 18 23H16C15.4477 23 15 23.4477 15 24Z" fill="white"/>
</svg>
