<svg width="38" height="38" viewBox="0 0 38 38" fill="none" xmlns="http://www.w3.org/2000/svg">
<rect width="38" height="38" fill="#E5E5E5"/>
<g clip-path="url(#clip0_0_1)">
<rect width="1200" height="942" transform="translate(-779 -367)" fill="#F4F5F6"/>
<g filter="url(#filter0_d_0_1)">
<rect x="-668" y="-9" width="1058" height="56" rx="6" fill="white"/>
</g>
<circle cx="19" cy="19" r="19" fill="#F4F5F6"/>
<path fill-rule="evenodd" clip-rule="evenodd" d="M28.7474 22.5766C28.8742 22.7104 28.9537 22.8729 28.9853 23.0642C29.0173 23.255 28.997 23.4364 28.9244 23.6082C28.072 25.5478 26.7867 27.0979 25.0685 28.2587C23.3505 29.4196 21.4761 30 19.4449 30C18.0306 30 16.6798 29.7085 15.3923 29.1258C14.1047 28.5428 12.994 27.7593 12.0601 26.7755C11.1262 25.7914 10.3828 24.621 9.82963 23.2643C9.27657 21.9076 9 20.484 9 18.9935C9 17.5317 9.26076 16.1344 9.78199 14.8015C10.3034 13.4687 11.0107 12.315 11.9037 11.3405C12.7968 10.3657 13.8645 9.58006 15.1066 8.98297C16.3488 8.38603 17.6635 8.0586 19.0507 8.00132C19.4496 7.9823 19.7262 8.16853 19.8803 8.56011C20.0435 8.9519 19.9754 9.29594 19.6761 9.592C18.8965 10.3373 18.3002 11.2043 17.8877 12.1932C17.4753 13.1821 17.2689 14.226 17.2689 15.3247C17.2689 16.7388 17.5997 18.0429 18.2618 19.2372C18.9236 20.4316 19.8211 21.3774 20.9544 22.0749C22.0877 22.7725 23.3253 23.1209 24.6673 23.1209C25.737 23.1209 26.7709 22.8774 27.7683 22.3901C28.1399 22.2181 28.4663 22.2803 28.7474 22.5766ZM19.4449 28.1655C20.7507 28.1655 21.9906 27.8718 23.1647 27.2839C24.3387 26.6968 25.3385 25.8778 26.1634 24.8267C25.6738 24.9128 25.1749 24.9557 24.6673 24.9557C23.0169 24.9557 21.4894 24.5258 20.0842 23.666C18.6788 22.8058 17.568 21.6356 16.7521 20.1548C15.9359 18.6736 15.528 17.0638 15.528 15.3248C15.528 13.4902 15.9995 11.7848 16.9425 10.2084C15.1201 10.7817 13.6307 11.8756 12.4748 13.4902C11.3188 15.1051 10.7407 16.9394 10.7407 18.9936C10.7407 20.2357 10.9719 21.4227 11.4343 22.5549C11.8969 23.6871 12.5156 24.6616 13.2907 25.4784C14.066 26.2955 14.9909 26.9475 16.0653 27.4347C17.1398 27.9219 18.2663 28.1655 19.4449 28.1655Z" fill="#9098A1"/>
</g>
<defs>
<filter id="filter0_d_0_1" x="-669" y="-9" width="1060" height="58" filterUnits="userSpaceOnUse" color-interpolation-filters="sRGB">
<feFlood flood-opacity="0" result="BackgroundImageFix"/>
<feColorMatrix in="SourceAlpha" type="matrix" values="0 0 0 0 0 0 0 0 0 0 0 0 0 0 0 0 0 0 127 0" result="hardAlpha"/>
<feOffset dy="1"/>
<feGaussianBlur stdDeviation="0.5"/>
<feColorMatrix type="matrix" values="0 0 0 0 0.176471 0 0 0 0 0.231373 0 0 0 0 0.305882 0 0 0 0.06 0"/>
<feBlend mode="normal" in2="BackgroundImageFix" result="effect1_dropShadow_0_1"/>
<feBlend mode="normal" in="SourceGraphic" in2="effect1_dropShadow_0_1" result="shape"/>
</filter>
<clipPath id="clip0_0_1">
<rect width="1200" height="942" fill="white" transform="translate(-779 -367)"/>
</clipPath>
</defs>
</svg>
