<svg width="24" height="24" viewBox="0 0 24 24" fill="none" xmlns="http://www.w3.org/2000/svg">
<g id="Late check out">
<path id="Late check out. icon" fill-rule="evenodd" clip-rule="evenodd" d="M21.7474 15.5766C21.8742 15.7104 21.9537 15.8729 21.9853 16.0642C22.0173 16.255 21.997 16.4364 21.9244 16.6082C21.072 18.5478 19.7867 20.0979 18.0685 21.2587C16.3505 22.4196 14.4761 23 12.4449 23C11.0306 23 9.67981 22.7085 8.39231 22.1258C7.10466 21.5428 5.99398 20.7593 5.06013 19.7755C4.12618 18.7914 3.38282 17.621 2.82963 16.2643C2.27657 14.9076 2 13.484 2 11.9935C2 10.5317 2.26076 9.13438 2.78199 7.80151C3.30337 6.46874 4.01066 5.31497 4.90369 4.34045C5.79682 3.36573 6.86448 2.58006 8.10663 1.98297C9.34883 1.38603 10.6635 1.0586 12.0507 1.00132C12.4496 0.982298 12.7262 1.16853 12.8803 1.56011C13.0435 1.9519 12.9754 2.29594 12.6761 2.592C11.8965 3.33727 11.3002 4.20432 10.8877 5.19319C10.4753 6.18212 10.2689 7.22596 10.2689 8.32466C10.2689 9.7388 10.5997 11.0429 11.2618 12.2372C11.9236 13.4316 12.8211 14.3774 13.9544 15.0749C15.0877 15.7725 16.3253 16.1209 17.6673 16.1209C18.737 16.1209 19.7709 15.8774 20.7683 15.3901C21.1399 15.2181 21.4663 15.2803 21.7474 15.5766ZM12.4449 21.1655C13.7507 21.1655 14.9906 20.8718 16.1647 20.2839C17.3387 19.6968 18.3385 18.8778 19.1634 17.8267C18.6738 17.9128 18.1749 17.9557 17.6673 17.9557C16.0169 17.9557 14.4894 17.5258 13.0842 16.666C11.6788 15.8058 10.568 14.6356 9.75207 13.1548C8.93593 11.6736 8.52797 10.0638 8.52797 8.32476C8.52797 6.49022 8.99952 4.78484 9.94247 3.20842C8.12007 3.78166 6.63073 4.87565 5.4748 6.49022C4.31877 8.10505 3.74071 9.93944 3.74071 11.9936C3.74071 13.2357 3.97194 14.4227 4.43434 15.5549C4.89693 16.6871 5.51562 17.6616 6.29071 18.4784C7.06598 19.2955 7.99093 19.9475 9.06531 20.4347C10.1398 20.9219 11.2663 21.1655 12.4449 21.1655Z" fill="#9098A1"/>
</g>
</svg>
