<svg width="64" height="64" viewBox="0 0 64 64" fill="none" xmlns="http://www.w3.org/2000/svg">
<g id="Live view">
<path id="Live view. icon" fill-rule="evenodd" clip-rule="evenodd" d="M32 56C18.7452 56 8 45.2548 8 32C8 18.7452 18.7452 8 32 8C45.2548 8 56 18.7452 56 32C56 45.2548 45.2548 56 32 56ZM26.4383 40.7506L31.8388 34H28C26.323 34 25.3906 32.0601 26.4383 30.7506L34.4383 20.7506C35.1283 19.8881 36.3869 19.7482 37.2494 20.4383C38.1119 21.1283 38.2518 22.3869 37.5617 23.2494L32.1613 30H36C37.677 30 38.6094 31.9399 37.5617 33.2494L29.5617 43.2494C28.8717 44.1119 27.6131 44.2518 26.7506 43.5617C25.8881 42.8717 25.7482 41.6131 26.4383 40.7506ZM52 32C52 43.0457 43.0457 52 32 52C20.9543 52 12 43.0457 12 32C12 20.9543 20.9543 12 32 12C43.0457 12 52 20.9543 52 32Z" fill="#2D3B4E" fill-opacity="0.5"/>
</g>
</svg>
