<svg width="44" height="44" viewBox="0 0 44 44" fill="none" xmlns="http://www.w3.org/2000/svg">
<path d="M24.0316 15.0767V21.6217C23.9797 22.1749 23.5153 22.5976 22.9597 22.5976C22.4041 22.5976 21.9397 22.1749 21.8877 21.6217V15.0767C21.8849 14.7818 22.0087 14.4998 22.2277 14.3022C22.4193 14.1073 22.6817 13.9983 22.955 14C23.5496 14 24.0316 14.4821 24.0316 15.0767Z" fill="#2D3B4E" fill-opacity="0.5"/>
<path d="M30.919 23.065C30.9232 24.0876 30.7078 25.1002 30.286 26.0396C29.4834 27.8807 27.9552 29.3445 26.033 30.1132C22.3126 31.6332 17.9932 30.2473 15.9793 26.8875C13.9655 23.5277 14.8939 19.2561 18.1403 16.9452C18.3369 16.8031 18.5765 16.7266 18.8228 16.7273H18.981C19.2764 16.7654 19.5417 16.9199 19.7129 17.1536C19.8878 17.3897 19.9523 17.6848 19.8909 17.9683C19.8517 18.2516 19.6948 18.5078 19.4558 18.6788C18.7574 19.1967 18.1923 19.8611 17.804 20.6209C17.054 22.0509 16.9998 23.7247 17.6557 25.1965C18.2251 26.5242 19.3257 27.5783 20.7119 28.1238C22.9199 29.0095 25.47 28.4889 27.1091 26.8177C28.7481 25.1466 29.1313 22.6763 28.0705 20.6209C27.6662 19.8704 27.0835 19.2214 26.3693 18.7262C26.1281 18.5542 25.9737 18.2928 25.944 18.0062C25.9049 17.7194 25.9876 17.4295 26.1736 17.2016C26.3595 16.9737 26.6331 16.8267 26.9331 16.7936C27.2325 16.7544 27.5358 16.833 27.7738 17.0115C28.7473 17.7077 29.5366 18.613 30.0783 19.6546C30.6328 20.7129 30.9208 21.8809 30.919 23.065Z" fill="#2D3B4E" fill-opacity="0.5"/>
</svg>
