<svg width="304" height="56" viewBox="0 0 304 56" fill="none" xmlns="http://www.w3.org/2000/svg">
<rect width="304" height="56" fill="#E5E5E5"/>
<g clip-path="url(#clip0_0_1)">
<rect width="360" height="684" transform="translate(-15 -611)" fill="#F4F5F6"/>
<rect x="-15" y="-611" width="360" height="684" fill="#2D3B4E" fill-opacity="0.85"/>
<g filter="url(#filter0_d_0_1)">
<path d="M313 -611C319.627 -611 325 -605.627 325 -599L325 61C325 67.6274 319.627 73 313 73L-15 73L-15 -611L313 -611Z" fill="white"/>
</g>
<rect width="304" height="56" rx="4" fill="#F4F5F6"/>
<path d="M124.463 34H131.439V32.224H126.527V22.64H124.463V34ZM132.16 29.92C132.16 32.432 134.16 34.192 136.656 34.192C139.136 34.192 141.136 32.432 141.136 29.92C141.136 27.424 139.136 25.648 136.64 25.648C134.16 25.648 132.16 27.424 132.16 29.92ZM134.224 29.92C134.224 28.416 135.328 27.376 136.656 27.376C137.968 27.376 139.072 28.416 139.072 29.92C139.072 31.44 137.968 32.464 136.656 32.464C135.328 32.464 134.224 31.44 134.224 29.92ZM143.6 35.104L142.992 36.656C143.776 37.072 144.864 37.36 145.888 37.36C148.016 37.36 150.192 36.304 150.192 33.504V25.84H148.288V26.464C148.288 26.592 148.304 26.688 148.304 26.688H148.256C148.256 26.688 147.616 25.648 145.84 25.648C143.488 25.648 142.224 27.472 142.224 29.712C142.224 31.952 143.552 33.84 145.888 33.84C146.976 33.84 147.68 33.456 148.16 32.736H148.192C148.192 32.736 148.16 32.976 148.16 33.168V33.648C148.16 35.104 147.104 35.632 145.856 35.632C144.624 35.632 143.6 35.104 143.6 35.104ZM146.32 32.128C145.008 32.128 144.272 31.072 144.272 29.648C144.272 28.272 144.96 27.376 146.192 27.376C147.296 27.376 148.208 27.872 148.208 29.728C148.208 31.568 147.296 32.128 146.32 32.128ZM155.707 29.92C155.707 32.432 157.707 34.192 160.203 34.192C162.683 34.192 164.683 32.432 164.683 29.92C164.683 27.424 162.683 25.648 160.187 25.648C157.707 25.648 155.707 27.424 155.707 29.92ZM157.771 29.92C157.771 28.416 158.875 27.376 160.203 27.376C161.515 27.376 162.619 28.416 162.619 29.92C162.619 31.44 161.515 32.464 160.203 32.464C158.875 32.464 157.771 31.44 157.771 29.92ZM166.203 31.088C166.203 33.312 167.291 34.192 169.035 34.192C170.427 34.192 171.467 33.344 171.867 32.496H171.899C171.899 32.496 171.867 32.752 171.867 33.072V34H173.819V25.84H171.787V29.584C171.787 31.04 170.971 32.336 169.499 32.336C168.491 32.336 168.235 31.664 168.235 30.672V25.84H166.203V31.088ZM176.417 31.008C176.417 33.744 178.673 34.08 179.809 34.08C180.193 34.08 180.433 34.032 180.433 34.032V32.256C180.433 32.256 180.289 32.288 180.065 32.288C179.505 32.288 178.449 32.096 178.449 30.752V27.584H180.305V25.968H178.449V23.616H176.465V25.968H175.361V27.584H176.417V31.008Z" fill="#2D3B4E"/>
</g>
<defs>
<filter id="filter0_d_0_1" x="-25" y="-621" width="360" height="704" filterUnits="userSpaceOnUse" color-interpolation-filters="sRGB">
<feFlood flood-opacity="0" result="BackgroundImageFix"/>
<feColorMatrix in="SourceAlpha" type="matrix" values="0 0 0 0 0 0 0 0 0 0 0 0 0 0 0 0 0 0 127 0" result="hardAlpha"/>
<feOffset/>
<feGaussianBlur stdDeviation="5"/>
<feColorMatrix type="matrix" values="0 0 0 0 0.0963341 0 0 0 0 0.156143 0 0 0 0 0.242046 0 0 0 1 0"/>
<feBlend mode="normal" in2="BackgroundImageFix" result="effect1_dropShadow_0_1"/>
<feBlend mode="normal" in="SourceGraphic" in2="effect1_dropShadow_0_1" result="shape"/>
</filter>
<clipPath id="clip0_0_1">
<rect width="360" height="684" fill="white" transform="translate(-15 -611)"/>
</clipPath>
</defs>
</svg>
