<svg width="96" height="96" viewBox="0 0 96 96" fill="none" xmlns="http://www.w3.org/2000/svg">
<g id="Logo">
<path id="Logo icon" fill-rule="evenodd" clip-rule="evenodd" d="M48.0911 95.9999C25.2107 95.9844 5.50541 79.8835 0.962694 57.492C-3.58002 35.1005 8.2963 12.6115 29.3668 3.70598C53.8122 -6.46095 81.8906 5.00529 92.1952 29.3629C102.5 53.7206 91.1575 81.8143 66.8154 92.2256C60.8918 94.7286 54.5233 96.0123 48.0911 95.9999ZM76.3927 42.9136C75.6319 42.9115 74.9017 43.2129 74.3644 43.7509L57.0033 61.0839C55.8825 62.203 55.8825 64.0175 57.0033 65.1366C58.1241 66.2558 59.9412 66.2558 61.062 65.1366L78.4232 47.8014C79.2436 46.9818 79.4888 45.7494 79.0443 44.6789C78.5998 43.6085 77.5533 42.9108 76.3927 42.9114V42.9136ZM17.1433 44.6842C17.5861 43.6143 18.6302 42.9157 19.7896 42.9136C20.5512 42.9109 21.2822 43.2124 21.82 43.7509L39.179 61.0839C39.929 61.8016 40.2318 62.868 39.9708 63.872C39.7098 64.876 38.9257 65.6606 37.9208 65.9234C36.9159 66.1862 35.8472 65.8861 35.1268 65.1388L17.7657 47.8036C16.946 46.9848 16.7005 45.754 17.1433 44.6842ZM48.0911 33.8876C41.9083 33.8876 36.8961 38.8923 36.8961 45.066C36.8961 51.2396 41.9083 56.2443 48.0911 56.2443C54.274 56.2443 59.2862 51.2396 59.2862 45.066C59.2862 42.1013 58.1067 39.258 56.0072 37.1617C53.9078 35.0653 51.0602 33.8876 48.0911 33.8876ZM42.6407 45.0601C42.6399 48.0668 45.08 50.5049 48.0911 50.5061C51.1019 50.5037 53.5424 48.0679 53.546 45.0616C53.546 42.0549 51.1052 39.6175 48.0941 39.6171C45.0829 39.6167 42.6415 42.0535 42.6407 45.0601Z" fill="#2D3B4E"/>
</g>
</svg>
