<svg width="152" height="48" viewBox="0 0 152 48" fill="none" xmlns="http://www.w3.org/2000/svg">
<rect width="152" height="48" fill="#E5E5E5"/>
<g clip-path="url(#clip0_0_1)">
<rect width="360" height="827" transform="translate(-188 -749)" fill="#F4F5F6"/>
<g filter="url(#filter0_d_0_1)">
<path fill-rule="evenodd" clip-rule="evenodd" d="M-168 -265C-168 -268.314 -165.314 -271 -162 -271H146C149.314 -271 152 -268.314 152 -265V15C152 18.3137 149.314 21 146 21H-162C-165.314 21 -168 18.3137 -168 15L-168 -265Z" fill="white"/>
</g>
<rect x="-188" y="-230" width="360" height="650" fill="#F4F5F6"/>
<g filter="url(#filter1_d_0_1)">
<path d="M-188 -723C-188 -729.627 -182.627 -735 -176 -735H160C166.627 -735 172 -729.627 172 -723V1009H-188V-723Z" fill="white"/>
</g>
<rect width="152" height="48" rx="4" fill="#2D3B4E" fill-opacity="0.05"/>
<path d="M63.952 28H65.758L66.178 22.442C66.22 21.784 66.192 20.888 66.192 20.888H66.22C66.22 20.888 66.528 21.868 66.766 22.442L68.362 26.292H69.944L71.554 22.442C71.792 21.868 72.086 20.902 72.086 20.902H72.114C72.114 20.902 72.086 21.784 72.128 22.442L72.548 28H74.34L73.542 18.06H71.61L69.664 22.974C69.44 23.562 69.174 24.43 69.174 24.43H69.146C69.146 24.43 68.866 23.562 68.642 22.974L66.696 18.06H64.764L63.952 28ZM75.767 24.43C75.767 26.46 77.237 28.168 79.603 28.168C81.381 28.168 82.473 27.146 82.473 27.146L81.787 25.872C81.787 25.872 80.877 26.656 79.729 26.656C78.665 26.656 77.699 26.012 77.587 24.766H82.515C82.515 24.766 82.557 24.29 82.557 24.08C82.557 22.19 81.451 20.692 79.393 20.692C77.265 20.692 75.767 22.232 75.767 24.43ZM77.643 23.548C77.811 22.624 78.441 22.064 79.351 22.064C80.135 22.064 80.737 22.582 80.765 23.548H77.643ZM83.421 27.118C83.421 27.118 84.415 28.168 86.193 28.168C87.887 28.168 88.923 27.216 88.923 26.026C88.923 23.73 85.451 23.856 85.451 22.848C85.451 22.4 85.899 22.204 86.361 22.204C87.453 22.204 88.111 22.82 88.111 22.82L88.769 21.504C88.769 21.504 87.985 20.692 86.375 20.692C84.835 20.692 83.645 21.462 83.645 22.792C83.645 25.088 87.117 24.948 87.117 26.012C87.117 26.432 86.683 26.656 86.179 26.656C85.017 26.656 84.233 25.872 84.233 25.872L83.421 27.118ZM89.751 27.118C89.751 27.118 90.745 28.168 92.523 28.168C94.217 28.168 95.253 27.216 95.253 26.026C95.253 23.73 91.781 23.856 91.781 22.848C91.781 22.4 92.229 22.204 92.691 22.204C93.783 22.204 94.441 22.82 94.441 22.82L95.099 21.504C95.099 21.504 94.315 20.692 92.705 20.692C91.165 20.692 89.975 21.462 89.975 22.792C89.975 25.088 93.447 24.948 93.447 26.012C93.447 26.432 93.013 26.656 92.509 26.656C91.347 26.656 90.563 25.872 90.563 25.872L89.751 27.118ZM96.0811 25.942C96.0811 27.37 97.2291 28.168 98.5031 28.168C100.127 28.168 100.687 26.908 100.673 26.908H100.701C100.701 26.908 100.673 27.132 100.673 27.412V28H102.311V23.534C102.311 21.728 101.219 20.692 99.3431 20.692C97.6491 20.692 96.5431 21.574 96.5431 21.574L97.2151 22.848C97.2151 22.848 98.1531 22.162 99.1751 22.162C99.9591 22.162 100.547 22.484 100.547 23.422V23.52H100.309C99.1471 23.52 96.0811 23.674 96.0811 25.942ZM97.8731 25.858C97.8731 24.864 99.3431 24.738 100.253 24.738H100.561V24.906C100.561 25.774 99.8891 26.782 98.9511 26.782C98.2231 26.782 97.8731 26.334 97.8731 25.858ZM104.89 28.966L104.358 30.324C105.044 30.688 105.996 30.94 106.892 30.94C108.754 30.94 110.658 30.016 110.658 27.566V20.86H108.992V21.406C108.992 21.518 109.006 21.602 109.006 21.602H108.964C108.964 21.602 108.404 20.692 106.85 20.692C104.792 20.692 103.686 22.288 103.686 24.248C103.686 26.208 104.848 27.86 106.892 27.86C107.844 27.86 108.46 27.524 108.88 26.894H108.908C108.908 26.894 108.88 27.104 108.88 27.272V27.692C108.88 28.966 107.956 29.428 106.864 29.428C105.786 29.428 104.89 28.966 104.89 28.966ZM107.27 26.362C106.122 26.362 105.478 25.438 105.478 24.192C105.478 22.988 106.08 22.204 107.158 22.204C108.124 22.204 108.922 22.638 108.922 24.262C108.922 25.872 108.124 26.362 107.27 26.362ZM112.107 24.43C112.107 26.46 113.577 28.168 115.943 28.168C117.721 28.168 118.813 27.146 118.813 27.146L118.127 25.872C118.127 25.872 117.217 26.656 116.069 26.656C115.005 26.656 114.039 26.012 113.927 24.766H118.855C118.855 24.766 118.897 24.29 118.897 24.08C118.897 22.19 117.791 20.692 115.733 20.692C113.605 20.692 112.107 22.232 112.107 24.43ZM113.983 23.548C114.151 22.624 114.781 22.064 115.691 22.064C116.475 22.064 117.077 22.582 117.105 23.548H113.983Z" fill="#2D3B4E"/>
<path fill-rule="evenodd" clip-rule="evenodd" d="M36 16H48C49.6569 16 51 17.3431 51 19V25.9966C51 27.6534 49.6569 28.9966 48 28.9966H37.6L33 33V19C33 17.3431 34.3431 16 36 16ZM36.8516 26.9966H48C48.5523 26.9966 49 26.5489 49 25.9966V19C49 18.4477 48.5523 18 48 18H36C35.4477 18 35 18.4477 35 19V28.608L36.8516 26.9966ZM38.5 23.86C37.7655 23.86 37.17 23.2645 37.17 22.53C37.17 21.7955 37.7655 21.2 38.5 21.2C39.2345 21.2 39.83 21.7955 39.83 22.53C39.83 23.2645 39.2345 23.86 38.5 23.86ZM42 23.86C41.2655 23.86 40.67 23.2645 40.67 22.53C40.67 21.7955 41.2655 21.2 42 21.2C42.7345 21.2 43.33 21.7955 43.33 22.53C43.33 23.2645 42.7345 23.86 42 23.86ZM45.5 23.86C44.7655 23.86 44.17 23.2645 44.17 22.53C44.17 21.7955 44.7655 21.2 45.5 21.2C46.2345 21.2 46.83 21.7955 46.83 22.53C46.83 23.2645 46.2345 23.86 45.5 23.86Z" fill="#2D3B4E"/>
</g>
<defs>
<filter id="filter0_d_0_1" x="-169" y="-271" width="322" height="294" filterUnits="userSpaceOnUse" color-interpolation-filters="sRGB">
<feFlood flood-opacity="0" result="BackgroundImageFix"/>
<feColorMatrix in="SourceAlpha" type="matrix" values="0 0 0 0 0 0 0 0 0 0 0 0 0 0 0 0 0 0 127 0" result="hardAlpha"/>
<feOffset dy="1"/>
<feGaussianBlur stdDeviation="0.5"/>
<feColorMatrix type="matrix" values="0 0 0 0 0.176471 0 0 0 0 0.231373 0 0 0 0 0.305882 0 0 0 0.06 0"/>
<feBlend mode="normal" in2="BackgroundImageFix" result="effect1_dropShadow_0_1"/>
<feBlend mode="normal" in="SourceGraphic" in2="effect1_dropShadow_0_1" result="shape"/>
</filter>
<filter id="filter1_d_0_1" x="-198" y="-743" width="380" height="1764" filterUnits="userSpaceOnUse" color-interpolation-filters="sRGB">
<feFlood flood-opacity="0" result="BackgroundImageFix"/>
<feColorMatrix in="SourceAlpha" type="matrix" values="0 0 0 0 0 0 0 0 0 0 0 0 0 0 0 0 0 0 127 0" result="hardAlpha"/>
<feOffset dy="2"/>
<feGaussianBlur stdDeviation="5"/>
<feColorMatrix type="matrix" values="0 0 0 0 0.176471 0 0 0 0 0.231373 0 0 0 0 0.305882 0 0 0 0.04 0"/>
<feBlend mode="normal" in2="BackgroundImageFix" result="effect1_dropShadow_0_1"/>
<feBlend mode="normal" in="SourceGraphic" in2="effect1_dropShadow_0_1" result="shape"/>
</filter>
<clipPath id="clip0_0_1">
<rect width="360" height="827" fill="white" transform="translate(-188 -749)"/>
</clipPath>
</defs>
</svg>
