<svg width="44" height="44" viewBox="0 0 44 44" fill="none" xmlns="http://www.w3.org/2000/svg">
<path fill-rule="evenodd" clip-rule="evenodd" d="M26.2963 18C26.2963 20.2091 24.4391 22 22.1481 22C19.8572 22 18 20.2091 18 18C18 15.7909 19.8572 14 22.1481 14C24.4391 14 26.2963 15.7909 26.2963 18ZM21.3007 15.9656C20.4456 16.3049 19.8874 17.1084 19.8874 18C19.8874 19.2073 20.8962 20.189 22.1481 20.2C23.0728 20.2081 23.911 19.6773 24.2707 18.8559C24.6304 18.0344 24.4403 17.0849 23.7895 16.4516C23.1387 15.8182 22.1557 15.6263 21.3007 15.9656Z" fill="#2D3B4E" fill-opacity="0.5"/>
<path fill-rule="evenodd" clip-rule="evenodd" d="M15 29.5C15.0198 25.9181 18.0262 23.0191 21.7407 23C25.4715 22.9972 28.503 25.9025 28.523 29.5V30.4H15V29.5ZM21.7589 24.7996C19.4173 24.7996 17.4036 26.3989 16.9548 28.615H26.563C26.1142 26.3989 24.1005 24.7996 21.7589 24.7996Z" fill="#2D3B4E" fill-opacity="0.5"/>
</svg>
