<svg width="64" height="64" viewBox="0 0 64 64" fill="none" xmlns="http://www.w3.org/2000/svg">
<g id="Revenue">
<g id="Revenue. icon">
<path id="Shape" fill-rule="evenodd" clip-rule="evenodd" d="M19.5365 20L16.1222 10.6885C15.6437 9.38329 16.6098 8 18 8H40C41.3902 8 42.3563 9.38329 41.8778 10.6885L38.4635 20H39C41.7614 20 44 22.2386 44 25C44 27.1056 42.6984 28.9073 40.8559 29.6442C48.4108 39.5077 49.9737 46.5391 45.5447 50.7387C38.1101 57.7881 19.7816 57.7194 12.4195 50.7387C8.03245 46.5789 9.61139 39.5491 17.1563 29.6491C15.3073 28.9152 14 27.1103 14 25C14 22.2386 16.2386 20 19 20H19.5365ZM34 14V12H37.1365L34.2031 20H23.7969L20.8635 12H30V14C30 15.1046 30.8954 16 32 16C33.1046 16 34 15.1046 34 14ZM19 24H39C39.5523 24 40 24.4477 40 25C40 25.5523 39.5523 26 39 26H19C18.4477 26 18 25.5523 18 25C18 24.4477 18.4477 24 19 24ZM15.1717 47.836C12.5406 45.3412 14.1826 39.5429 21.9727 30H36.0341C43.844 39.5083 45.472 45.2953 42.7925 47.836C36.926 53.3986 21.0158 53.3773 15.1717 47.836Z" fill="#2D3B4E" fill-opacity="0.5"/>
<path id="Shape_2" fill-rule="evenodd" clip-rule="evenodd" d="M55.0004 48C55.6281 48.8357 56 49.8744 56 51C56 53.7614 53.7614 56 51 56H43C40.2386 56 38 53.7614 38 51C38 49.8744 38.3719 48.8357 38.9996 48C38.3719 47.1643 38 46.1256 38 45C38 43.8744 38.3719 42.8357 38.9996 42C38.3719 41.1643 38 40.1256 38 39C38 37.8744 38.3719 36.8357 38.9996 36C38.3719 35.1643 38 34.1256 38 33C38 30.2386 40.2386 28 43 28H51C53.7614 28 56 30.2386 56 33C56 34.1256 55.6281 35.1643 55.0004 36C55.6281 36.8357 56 37.8744 56 39C56 40.1256 55.6281 41.1643 55.0004 42C55.6281 42.8357 56 43.8744 56 45C56 46.1256 55.6281 47.1643 55.0004 48ZM51 50H43C42.4477 50 42 50.4477 42 51C42 51.5523 42.4477 52 43 52H51C51.5523 52 52 51.5523 52 51C52 50.4477 51.5523 50 51 50ZM52 45C52 45.5523 51.5523 46 51 46H43C42.4477 46 42 45.5523 42 45C42 44.4477 42.4477 44 43 44H51C51.5523 44 52 44.4477 52 45ZM43 40H51C51.5523 40 52 39.5523 52 39C52 38.4477 51.5523 38 51 38H43C42.4477 38 42 38.4477 42 39C42 39.5523 42.4477 40 43 40ZM52 33C52 33.5523 51.5523 34 51 34H43C42.4477 34 42 33.5523 42 33C42 32.4477 42.4477 32 43 32H51C51.5523 32 52 32.4477 52 33Z" fill="#969DA6"/>
<path id="Shape_3" fill-rule="evenodd" clip-rule="evenodd" d="M25.8234 42.2431C24.844 42.2831 24.0577 42.9395 24 43.7653C24.009 45.3991 25.1719 46.8708 26.9559 47.5061V48.2511C26.9218 48.6757 27.0873 49.0945 27.4165 49.417C27.7556 49.7621 28.249 49.9732 28.7793 50H28.9328C29.9425 50.0021 30.7815 49.3438 30.8522 48.494V47.4899C31.9641 47.0942 32.8655 46.3682 33.3858 45.4495C33.9509 44.5166 34.0478 43.4312 33.6545 42.4374C33.343 41.7243 32.797 41.1008 32.0806 40.6399C33.0903 40.642 33.9293 39.9837 34 39.1339V38.9234C33.9794 37.291 32.7987 35.8287 31.0058 35.215V33.7413C31.0398 33.3167 30.8743 32.8979 30.5451 32.5754C30.1981 32.2323 29.6972 32.0269 29.1631 32.0086C28.6475 31.9636 28.1321 32.0966 27.7345 32.3772C27.3368 32.6578 27.0906 33.0622 27.0518 33.4984V35.215C25.9343 35.5929 25.0241 36.3089 24.499 37.223C23.9449 38.1797 23.8824 39.2868 24.3263 40.2837C24.6636 41.0783 25.2879 41.7637 26.1113 42.2431H25.8234ZM30 43.1607C29.9575 43.6029 29.6471 43.9522 29.254 44C28.7893 44 28.4127 43.5763 28.4127 43.0536C28.3757 42.6627 28.2315 42.2945 28 42C28.3894 42.1433 28.7966 42.2157 29.2063 42.2143C29.4326 42.2281 29.6443 42.344 29.7937 42.5357C29.9014 42.7071 29.952 42.9158 29.9365 43.125L30 43.1607ZM28.9052 38C28.4407 38 28.0642 38.4163 28.0642 38.9298L28.0008 38.8947C27.9905 39.1587 28.0842 39.4147 28.2576 39.5964C28.4311 39.7781 28.6673 39.8678 28.9052 39.8421C29.2748 39.8417 29.6429 39.8948 30 40C29.8132 39.6829 29.7241 39.3075 29.7461 38.9298C29.7461 38.4163 29.3696 38 28.9052 38Z" fill="#2D3B4E" fill-opacity="0.5"/>
<path id="Rectangle" fill-rule="evenodd" clip-rule="evenodd" d="M43 32H51C51.5523 32 52 32.4477 52 33C52 33.5523 51.5523 34 51 34H43C42.4477 34 42 33.5523 42 33C42 32.4477 42.4477 32 43 32Z" fill="white"/>
<path id="Rectangle Copy" fill-rule="evenodd" clip-rule="evenodd" d="M43 38H51C51.5523 38 52 38.4477 52 39C52 39.5523 51.5523 40 51 40H43C42.4477 40 42 39.5523 42 39C42 38.4477 42.4477 38 43 38Z" fill="white"/>
<path id="Rectangle Copy 2" fill-rule="evenodd" clip-rule="evenodd" d="M43 44H51C51.5523 44 52 44.4477 52 45C52 45.5523 51.5523 46 51 46H43C42.4477 46 42 45.5523 42 45C42 44.4477 42.4477 44 43 44Z" fill="white"/>
<path id="Rectangle Copy 3" fill-rule="evenodd" clip-rule="evenodd" d="M43 50H51C51.5523 50 52 50.4477 52 51C52 51.5523 51.5523 52 51 52H43C42.4477 52 42 51.5523 42 51C42 50.4477 42.4477 50 43 50Z" fill="white"/>
</g>
</g>
</svg>
