<svg width="64" height="64" viewBox="0 0 64 64" fill="none" xmlns="http://www.w3.org/2000/svg">
<g id="Scheduled">
<path id="scheduled. icon" fill-rule="evenodd" clip-rule="evenodd" d="M42 12V8C42 6.89543 42.8954 6 44 6C45.1046 6 46 6.89543 46 8V12H48C51.3137 12 54 14.6863 54 18V32C54 33.1046 53.1046 34 52 34C50.8954 34 50 33.1046 50 32V18C50 16.8954 49.1046 16 48 16H46V18C46 19.1046 45.1046 20 44 20C42.8954 20 42 19.1046 42 18V16H32V18C32 19.1046 31.1046 20 30 20C28.8954 20 28 19.1046 28 18V16H18V18C18 19.1046 17.1046 20 16 20C14.8954 20 14 19.1046 14 18V16H12C10.8954 16 10 16.8954 10 18V50C10 51.1046 10.8954 52 12 52H32.9167C34.0212 52 34.9167 52.8954 34.9167 54C34.9167 55.1046 34.0212 56 32.9167 56H12C8.68629 56 6 53.3137 6 50V18C6 14.6863 8.68629 12 12 12H14V8C14 6.89543 14.8954 6 16 6C17.1046 6 18 6.89543 18 8V12H28V8C28 6.89543 28.8954 6 30 6C31.1046 6 32 6.89543 32 8V12H42ZM48 58C42.4772 58 38 53.5228 38 48C38 42.4772 42.4772 38 48 38C53.5228 38 58 42.4772 58 48C58 53.5228 53.5228 58 48 58ZM54 48C54 51.3137 51.3137 54 48 54C44.6863 54 42 51.3137 42 48C42 44.6863 44.6863 42 48 42C51.3137 42 54 44.6863 54 48ZM50 46C51.1046 46 52 46.8954 52 48C52 49.1046 51.1046 50 50 50H48C46.8954 50 46 49.1046 46 48V46C46 44.8954 46.8954 44 48 44C49.1046 44 50 44.8954 50 46ZM14 29C14 30.6569 15.3431 32 17 32C18.6569 32 20 30.6569 20 29C20 27.3431 18.6569 26 17 26C15.3431 26 14 27.3431 14 29ZM29 32C27.3431 32 26 30.6569 26 29C26 27.3431 27.3431 26 29 26C30.6569 26 32 27.3431 32 29C32 30.6569 30.6569 32 29 32ZM14 41C14 42.6569 15.3431 44 17 44C18.6569 44 20 42.6569 20 41C20 39.3431 18.6569 38 17 38C15.3431 38 14 39.3431 14 41ZM29 44C27.3431 44 26 42.6569 26 41C26 39.3431 27.3431 38 29 38C30.6569 38 32 39.3431 32 41C32 42.6569 30.6569 44 29 44ZM38 29C38 30.6569 39.3431 32 41 32C42.6569 32 44 30.6569 44 29C44 27.3431 42.6569 26 41 26C39.3431 26 38 27.3431 38 29Z" fill="#2D3B4E" fill-opacity="0.5"/>
</g>
</svg>
