<svg width="32" height="32" viewBox="0 0 32 32" fill="none" xmlns="http://www.w3.org/2000/svg">
<g id="Scheduled">
<path id="scheduled. icon" fill-rule="evenodd" clip-rule="evenodd" d="M21 6V4C21 3.44772 21.4477 3 22 3C22.5523 3 23 3.44772 23 4V6H24C25.6569 6 27 7.34315 27 9V16C27 16.5523 26.5523 17 26 17C25.4477 17 25 16.5523 25 16V9C25 8.44772 24.5523 8 24 8H23V9C23 9.55228 22.5523 10 22 10C21.4477 10 21 9.55228 21 9V8H16V9C16 9.55228 15.5523 10 15 10C14.4477 10 14 9.55228 14 9V8H9V9C9 9.55228 8.55228 10 8 10C7.44772 10 7 9.55228 7 9V8H6C5.44772 8 5 8.44772 5 9V25C5 25.5523 5.44772 26 6 26H16.4583C17.0106 26 17.4583 26.4477 17.4583 27C17.4583 27.5523 17.0106 28 16.4583 28H6C4.34315 28 3 26.6569 3 25V9C3 7.34315 4.34315 6 6 6H7V4C7 3.44772 7.44772 3 8 3C8.55228 3 9 3.44772 9 4V6H14V4C14 3.44772 14.4477 3 15 3C15.5523 3 16 3.44772 16 4V6H21ZM24 29C21.2386 29 19 26.7614 19 24C19 21.2386 21.2386 19 24 19C26.7614 19 29 21.2386 29 24C29 26.7614 26.7614 29 24 29ZM27 24C27 25.6569 25.6569 27 24 27C22.3431 27 21 25.6569 21 24C21 22.3431 22.3431 21 24 21C25.6569 21 27 22.3431 27 24ZM25 23C25.5523 23 26 23.4477 26 24C26 24.5523 25.5523 25 25 25H24C23.4477 25 23 24.5523 23 24V23C23 22.4477 23.4477 22 24 22C24.5523 22 25 22.4477 25 23ZM7 14.5C7 15.3284 7.67157 16 8.5 16C9.32843 16 10 15.3284 10 14.5C10 13.6716 9.32843 13 8.5 13C7.67157 13 7 13.6716 7 14.5ZM14.5 16C13.6716 16 13 15.3284 13 14.5C13 13.6716 13.6716 13 14.5 13C15.3284 13 16 13.6716 16 14.5C16 15.3284 15.3284 16 14.5 16ZM7 20.5C7 21.3284 7.67157 22 8.5 22C9.32843 22 10 21.3284 10 20.5C10 19.6716 9.32843 19 8.5 19C7.67157 19 7 19.6716 7 20.5ZM14.5 22C13.6716 22 13 21.3284 13 20.5C13 19.6716 13.6716 19 14.5 19C15.3284 19 16 19.6716 16 20.5C16 21.3284 15.3284 22 14.5 22ZM19 14.5C19 15.3284 19.6716 16 20.5 16C21.3284 16 22 15.3284 22 14.5C22 13.6716 21.3284 13 20.5 13C19.6716 13 19 13.6716 19 14.5Z" fill="white"/>
</g>
</svg>
