<svg width="64" height="64" viewBox="0 0 64 64" fill="none" xmlns="http://www.w3.org/2000/svg">
<g id="Settings">
<path id="Settings. icon" fill-rule="evenodd" clip-rule="evenodd" d="M26.7047 55.9565C27.3497 56.0992 28.0218 55.8863 28.4672 55.3983L32 51.5269L35.5329 55.3983C35.9782 55.8863 36.6504 56.0992 37.2954 55.9565C40.1845 55.3173 42.9185 54.1584 45.3795 52.5446C45.9282 52.1848 46.2447 51.5608 46.2109 50.9056L45.9482 45.818L50.968 46.0716C51.6302 46.1051 52.2594 45.7809 52.6166 45.2223C54.2183 42.7172 55.3551 39.9377 55.9618 37.0048C56.0952 36.3599 55.8749 35.6927 55.3837 35.254L51.7406 32L55.3837 28.7461C55.8749 28.3074 56.0952 27.6402 55.9618 26.9953C55.3551 24.0624 54.2183 21.2829 52.6166 18.7778C52.2594 18.2192 51.6302 17.895 50.968 17.9285L45.9482 18.1821L46.2109 13.0945C46.2447 12.4393 45.9282 11.8153 45.3795 11.4555C42.9185 9.84175 40.1845 8.68277 37.2954 8.04363C36.6504 7.90093 35.9782 8.11378 35.5329 8.60176L32 12.4732L28.4672 8.60176C28.0218 8.11378 27.3497 7.90093 26.7047 8.04363C23.8156 8.68277 21.0816 9.84175 18.6206 11.4555C18.0719 11.8153 17.7554 12.4393 17.7892 13.0945L18.0519 18.1821L13.0321 17.9285C12.3699 17.895 11.7407 18.2192 11.3835 18.7778C9.78177 21.2829 8.64495 24.0624 8.03831 26.9953C7.90491 27.6402 8.12519 28.3074 8.61639 28.7461L12.2595 32L8.61639 35.254C8.12519 35.6927 7.90491 36.3599 8.03831 37.0048C8.64495 39.9377 9.78177 42.7172 11.3835 45.2223C11.7407 45.7809 12.3699 46.1051 13.0321 46.0716L18.0519 45.818L17.7892 50.9056C17.7554 51.5608 18.0719 52.1848 18.6206 52.5446C21.0816 54.1584 23.8156 55.3173 26.7047 55.9565ZM33.3637 47.5437C32.6316 46.7414 31.3685 46.7414 30.6364 47.5437L26.4805 52.0977C24.7437 51.6191 23.0822 50.9156 21.5328 50.0075L21.8447 43.9662C21.9011 42.8736 21.0005 41.972 19.9079 42.0272L13.9475 42.3284C13.0452 40.7459 12.3534 39.0499 11.8925 37.2785L16.2607 33.3769C17.0825 32.6429 17.0825 31.3572 16.2607 30.6231L11.8925 26.7216C12.3534 24.9502 13.0452 23.2542 13.9475 21.6717L19.9079 21.9729C21.0005 22.0281 21.9011 21.1265 21.8447 20.0339L21.5328 13.9926C23.0822 13.0845 24.7437 12.381 26.4805 11.9024L30.6364 16.4564C31.3685 17.2587 32.6316 17.2587 33.3637 16.4564L37.5196 11.9024C39.2563 12.381 40.9179 13.0845 42.4673 13.9926L42.1554 20.0339C42.099 21.1265 42.9996 22.0281 44.0922 21.9729L50.0526 21.6717C50.9549 23.2542 51.6467 24.9502 52.1076 26.7216L47.7394 30.6231C46.9176 31.3572 46.9176 32.6429 47.7394 33.3769L52.1076 37.2785C51.6467 39.0499 50.9549 40.7459 50.0526 42.3284L44.0922 42.0272C42.9996 41.972 42.099 42.8736 42.1554 43.9662L42.4673 50.0075C40.9179 50.9156 39.2563 51.6191 37.5196 52.0977L33.3637 47.5437ZM32 40C27.5817 40 24 36.4183 24 32C24 27.5817 27.5817 24 32 24C36.4183 24 40 27.5817 40 32C40 36.4183 36.4183 40 32 40ZM36 32C36 34.2091 34.2091 36 32 36C29.7909 36 28 34.2091 28 32C28 29.7909 29.7909 28 32 28C34.2091 28 36 29.7909 36 32Z" fill="#2D3B4E" fill-opacity="0.5"/>
</g>
</svg>
