<svg width="64" height="64" viewBox="0 0 64 64" fill="none" xmlns="http://www.w3.org/2000/svg">
<g id="Statistics">
<path id="Statistics. icon" fill-rule="evenodd" clip-rule="evenodd" d="M46 46.1613V48H14V16H15.8388C16.2929 16 16.7335 15.8455 17.0881 15.5618C17.9507 14.8718 18.0905 13.6132 17.4005 12.7507L13.5617 7.95222C13.4695 7.83689 13.3647 7.73214 13.2494 7.63987C12.3869 6.94986 11.1283 7.0897 10.4383 7.95222L6.59952 12.7507C6.31582 13.1053 6.16125 13.5459 6.16125 14C6.16125 15.1046 7.05669 16 8.16125 16H10V48C10 50.2092 11.7909 52 14 52H46V53.8388C46 54.2929 46.1546 54.7336 46.4383 55.0882C47.1283 55.9507 48.3869 56.0906 49.2494 55.4005L54.0478 51.5618C54.1632 51.4695 54.2679 51.3648 54.3602 51.2494C55.0502 50.3869 54.9104 49.1283 54.0478 48.4383L49.2494 44.5996C48.8948 44.3159 48.4541 44.1613 48 44.1613C46.8954 44.1613 46 45.0567 46 46.1613ZM22 22C22 23.1046 22.8954 24 24 24H42C43.1046 24 44 23.1046 44 22C44 20.8955 43.1046 20 42 20H24C22.8954 20 22 20.8955 22 22ZM24 32C22.8954 32 22 31.1046 22 30C22 28.8955 22.8954 28 24 28H36C37.1046 28 38 28.8955 38 30C38 31.1046 37.1046 32 36 32H24ZM22 38C22 39.1046 22.8954 40 24 40H40C41.1046 40 42 39.1046 42 38C42 36.8955 41.1046 36 40 36H24C22.8954 36 22 36.8955 22 38Z" fill="#2D3B4E" fill-opacity="0.5"/>
</g>
</svg>
