<svg width="64" height="64" viewBox="0 0 64 64" fill="none" xmlns="http://www.w3.org/2000/svg">
<g id="Support">
<path id="Support. icon" fill-rule="evenodd" clip-rule="evenodd" d="M10.775 37.8089C12.8177 45.29 18.71 51.1823 26.1911 53.225C26.7084 54.8349 28.2181 56 30 56H34C35.7819 56 37.2916 54.8349 37.8089 53.225C45.29 51.1823 51.1823 45.29 53.225 37.8089C54.8349 37.2916 56 35.7819 56 34V30C56 28.2181 54.8349 26.7084 53.225 26.1911C51.1823 18.71 45.29 12.8177 37.8089 10.775C37.2916 9.1651 35.7819 8 34 8H30C28.2181 8 26.7084 9.1651 26.1911 10.775C18.71 12.8177 12.8177 18.71 10.775 26.1911C9.1651 26.7084 8 28.2181 8 30V34C8 35.7819 9.1651 37.2916 10.775 37.8089ZM48.9758 38C47.1681 43.1145 43.1145 47.1681 38 48.9758V42.3946C39.8218 41.3408 41.3408 39.8218 42.3946 38H48.9758ZM48.9758 26C47.1681 20.8855 43.1145 16.8319 38 15.0242V21.6054C39.8218 22.6592 41.3408 24.1782 42.3946 26H48.9758ZM15.0242 26C16.8319 20.8855 20.8855 16.8319 26 15.0242V21.6054C24.1782 22.6592 22.6592 24.1782 21.6054 26H15.0242ZM15.0242 38C16.8319 43.1145 20.8855 47.1681 26 48.9758V42.3946C24.1782 41.3408 22.6592 39.8218 21.6054 38H15.0242ZM30 38C29.1373 38 28.3383 38.2731 27.6849 38.7376C26.7135 38.1142 25.8858 37.2865 25.2624 36.3151C25.7269 35.6617 26 34.8627 26 34V30C26 29.1373 25.7269 28.3383 25.2624 27.6849C25.8858 26.7135 26.7135 25.8858 27.6849 25.2624C28.3383 25.7269 29.1373 26 30 26H34C34.8627 26 35.6617 25.7269 36.3151 25.2624C37.2865 25.8858 38.1142 26.7135 38.7376 27.6849C38.2731 28.3383 38 29.1373 38 30V34C38 34.8627 38.2731 35.6617 38.7376 36.3151C38.1142 37.2865 37.2865 38.1142 36.3151 38.7376C35.6617 38.2731 34.8627 38 34 38H30ZM42 30V34H52V30H42ZM12 34V30H22V34H12ZM34 12H30V22H34V12ZM30 42H34V52H30V42Z" fill="#2D3B4E" fill-opacity="0.5"/>
</g>
</svg>
