<svg width="24" height="24" viewBox="0 0 24 24" fill="none" xmlns="http://www.w3.org/2000/svg">
<g id="Transfer">
<path id="Transfer. icon" fill-rule="evenodd" clip-rule="evenodd" d="M5.32297 9L6.56864 5.88583C7.02423 4.74685 8.12735 4 9.35407 4H15.6459C16.8726 4 17.9758 4.74685 18.4314 5.88583L19.677 9H21C22.6569 9 24 10.3431 24 12V14C24 15.6569 22.6569 17 21 17H20.6632C20.1015 18.1825 18.8962 19 17.5 19C16.1038 19 14.8985 18.1825 14.3368 17H9.66318C9.10145 18.1825 7.8962 19 6.5 19C5.1038 19 3.89855 18.1825 3.33682 17H3C1.34315 17 0 15.6569 0 14V12C0 10.3431 1.34315 9 3 9H5.32297ZM7.47703 9H17.523L16.5744 6.62861C16.4225 6.24895 16.0548 6 15.6459 6H9.35407C8.94516 6 8.57745 6.24895 8.42559 6.62861L7.47703 9ZM6.5 14C7.15311 14 7.70873 14.4174 7.91465 15C7.96992 15.1564 8 15.3247 8 15.5C8 16.3284 7.32843 17 6.5 17C5.67157 17 5 16.3284 5 15.5C5 15.3247 5.03008 15.1564 5.08535 15C5.09538 14.9716 5.10623 14.9437 5.11788 14.9161C5.34559 14.3778 5.87868 14 6.5 14ZM18.9146 15C18.7087 14.4174 18.1531 14 17.5 14C16.6716 14 16 14.6716 16 15.5C16 16.3284 16.6716 17 17.5 17C18.3284 17 19 16.3284 19 15.5C19 15.3247 18.9699 15.1564 18.9146 15ZM17.5 12C15.7368 12 14.2781 13.3039 14.0354 15H9.96456C9.72194 13.3039 8.26324 12 6.5 12C4.73676 12 3.27806 13.3039 3.03544 15H3C2.44772 15 2 14.5523 2 14V12C2 11.4477 2.44772 11 3 11H21C21.5523 11 22 11.4477 22 12V14C22 14.5523 21.5523 15 21 15H20.9646C20.7219 13.3039 19.2632 12 17.5 12Z" fill="#9098A1"/>
</g>
</svg>
